<?xml version="1.0" encoding="UTF-8"?>
<svg version="1.1" xmlns="http://www.w3.org/2000/svg" width="1536" height="1024">
<path d="M0 0 C0.93363433 7.62703977 1.15914421 15.15881833 1.17700195 22.83764648 C1.18357315 24.0827449 1.19014435 25.32784332 1.19691467 26.610672 C1.21649967 30.69748183 1.22828024 34.78425287 1.23828125 38.87109375 C1.2423346 40.2844806 1.24645168 41.69786726 1.25063133 43.11125374 C1.26961474 49.74110503 1.28387181 56.37094552 1.2922433 63.00081867 C1.30205473 70.64219631 1.32850349 78.28328732 1.36874419 85.92456383 C1.39885577 91.84578493 1.41370657 97.7669234 1.41702431 103.68821961 C1.41937616 107.22007155 1.42835719 110.75161474 1.45348549 114.28338432 C1.48099524 118.21172329 1.47695044 122.13967841 1.4699707 126.06811523 C1.48918579 127.82371262 1.48918579 127.82371262 1.50878906 129.61477661 C1.49837334 131.21480278 1.49837334 131.21480278 1.48774719 132.84715271 C1.49013555 133.77531516 1.4925239 134.70347761 1.49498463 135.6597662 C1 138 1 138 -0.9054842 139.82205296 C-3 141 -3 141 -5 141 C-5 141.66 -5 142.32 -5 143 C-6.98 143.66 -8.96 144.32 -11 145 C-11 145.66 -11 146.32 -11 147 C-12.010625 147.56460938 -13.02125 148.12921875 -14.0625 148.7109375 C-17.82073322 150.85984696 -21.41458364 153.20160005 -25 155.625 C-25.64590088 156.058125 -26.29180176 156.49125 -26.95727539 156.9375 C-29.60538533 158.71338572 -32.24992931 160.49453859 -34.89404297 162.27636719 C-41.79845826 166.9254251 -48.73434637 171.49395131 -55.8125 175.875 C-61.91560506 179.65831786 -67.94817716 183.53886749 -73.9375 187.5 C-74.72552002 188.01675293 -75.51354004 188.53350586 -76.32543945 189.06591797 C-77.05206787 189.54947754 -77.77869629 190.03303711 -78.52734375 190.53125 C-79.49788696 191.17416992 -79.49788696 191.17416992 -80.48803711 191.83007812 C-82.1522521 192.94308134 -82.1522521 192.94308134 -83 195 C-84.11568359 195.2165625 -84.11568359 195.2165625 -85.25390625 195.4375 C-88.40773674 196.08351933 -90.26389754 197.22034474 -92.9375 199 C-93.88367188 199.62003906 -94.82984375 200.24007812 -95.8046875 200.87890625 C-96.85914063 201.57886719 -97.91359375 202.27882813 -99 203 C-101.51551096 204.65409859 -104.03812854 206.29696827 -106.5625 207.9375 C-107.1702124 208.33904297 -107.7779248 208.74058594 -108.40405273 209.15429688 C-112.77468156 212 -112.77468156 212 -115 212 C-115.33 212.99 -115.66 213.98 -116 215 C-117.64261179 215.7239121 -119.31530096 216.3803135 -121 217 C-122.91835958 218.10770691 -124.81218718 219.25838174 -126.6875 220.4375 C-127.82254759 221.1477256 -128.95798837 221.85732307 -130.09375 222.56640625 C-130.70992187 222.95199707 -131.32609375 223.33758789 -131.9609375 223.73486328 C-134.22510368 225.13966562 -136.50174662 226.52257269 -138.78125 227.90234375 C-139.59376221 228.39484619 -140.40627441 228.88734863 -141.2434082 229.39477539 C-142.85541445 230.37106086 -144.46851085 231.34554889 -146.08276367 232.31811523 C-146.82244385 232.76743408 -147.56212402 233.21675293 -148.32421875 233.6796875 C-148.98510498 234.07913574 -149.64599121 234.47858398 -150.3269043 234.89013672 C-152.15621573 236.02397278 -152.15621573 236.02397278 -154 238 C-153.34 238.33 -152.68 238.66 -152 239 C-151.67 238.34 -151.34 237.68 -151 237 C-150.13375 238.0209375 -150.13375 238.0209375 -149.25 239.0625 C-148.5075 239.701875 -147.765 240.34125 -147 241 C-144.78141747 240.86358623 -144.78141747 240.86358623 -143 240 C-143 240.99 -143 241.98 -143 243 C-141.989375 243.0825 -140.97875 243.165 -139.9375 243.25 C-135.12011723 243.84578939 -130.52880122 245.12531307 -125.85668945 246.41479492 C-121.63334884 247.57727348 -117.40320283 248.61457464 -113.125 249.5625 C-108.65603287 250.56897485 -104.37650421 251.79132788 -100.05859375 253.3125 C-97.97159998 254.00948464 -95.88975735 254.55246473 -93.75 255.0625 C-90.6674219 255.83314452 -87.90214215 256.73031281 -85 258 C-85.59082843 261.84038477 -86.71996914 264.68539984 -88.625 268.0625 C-89.16511719 269.02285156 -89.70523437 269.98320313 -90.26171875 270.97265625 C-90.83535156 271.97167969 -91.40898438 272.97070312 -92 274 C-92.56332031 274.98871094 -93.12664062 275.97742188 -93.70703125 276.99609375 C-99.73485686 287.45974589 -106.09163653 297.5003566 -113.56640625 306.98828125 C-116.11621185 310.27938372 -118.29679234 313.40789285 -120.0625 317.1875 C-121.8004068 320.87157516 -123.99552015 323.21536014 -127 326 C-129.58950968 328.84338318 -131.76403503 331.29210509 -133 335 C-133.99 335.33 -134.98 335.66 -136 336 C-137.01351664 337.65848177 -138.01120795 339.32665961 -139 341 C-140.6436814 342.68933922 -142.3142876 344.35259924 -144 346 C-145.83638751 348.12592593 -147.65039386 350.26798909 -149.44921875 352.42578125 C-149.96097656 352.94527344 -150.47273438 353.46476562 -151 354 C-151.66 354 -152.32 354 -153 354 C-153.2475 354.70125 -153.495 355.4025 -153.75 356.125 C-155.16479056 359.37901828 -156.97632642 362.09096923 -159 365 C-159.66 365.99 -160.32 366.98 -161 368 C-161.928125 368.4125 -162.85625 368.825 -163.8125 369.25 C-167.40768171 371.22382525 -168.5875991 373.01248991 -170.7734375 376.34765625 C-172.48463958 378.65287434 -174.41568467 379.81261187 -177 381 C-177.66 381 -178.32 381 -179 381 C-179 381.66 -179 382.32 -179 383 C-180.65483608 384.49877503 -182.37590512 385.92488473 -184.125 387.3125 C-185.1253125 388.11429688 -186.125625 388.91609375 -187.15625 389.7421875 C-188.0946875 390.48726562 -189.033125 391.23234375 -190 392 C-194.05452803 395.02138538 -194.05452803 395.02138538 -197 399 C-197.598125 399.28875 -198.19625 399.5775 -198.8125 399.875 C-202.14035198 401.58646673 -204.32169039 404.25152043 -206.8125 407 C-208.73009958 408.7532339 -210.24262452 409.73902133 -212.5 410.9375 C-215.87302816 412.75319388 -217.62471486 414.99130548 -220 418 C-221.64551962 418.71727778 -223.31422289 419.38325228 -225 420 C-226.6686195 421.33088862 -228.334966 422.6646284 -230 424 C-237.76066685 429.08457483 -245.80110367 433.66230735 -254 438 C-254.48210937 437.43410156 -254.96421875 436.86820313 -255.4609375 436.28515625 C-256.09257813 435.55167969 -256.72421875 434.81820313 -257.375 434.0625 C-258.00148438 433.33160156 -258.62796875 432.60070312 -259.2734375 431.84765625 C-260.87747714 429.91619094 -260.87747714 429.91619094 -263 429 C-263 428.34 -263 427.68 -263 427 C-264.32 426.34 -265.64 425.68 -267 425 C-267 424.34 -267 423.68 -267 423 C-267.804375 422.6596875 -267.804375 422.6596875 -268.625 422.3125 C-272.73581405 420.04073434 -276.04911798 416.95883254 -279.3359375 413.64453125 C-288.92955547 404.12124773 -299.86981936 396.2560746 -310.88867188 388.48974609 C-312.78126924 387.15433569 -314.66521881 385.80778387 -316.546875 384.45703125 C-323.5073199 379.52530139 -330.68792681 375.15950785 -338.14794922 371.03564453 C-340.07113712 369.96022098 -341.97581847 368.85666278 -343.87890625 367.74609375 C-352.99609747 362.45693603 -362.26842428 358.03453274 -372 354 C-373.03769531 353.56042969 -374.07539062 353.12085938 -375.14453125 352.66796875 C-378.08893611 351.42635224 -381.04176916 350.20829147 -384 349 C-385.18207031 348.51660156 -386.36414063 348.03320312 -387.58203125 347.53515625 C-401.33557705 341.94727584 -415.10104363 337.22073037 -429.51049805 333.62548828 C-431.25933564 333.18609219 -433.00539224 332.73554997 -434.74926758 332.27685547 C-442.58556602 330.2439427 -450.459316 328.73620675 -458.4375 327.375 C-460.26764648 327.05015625 -460.26764648 327.05015625 -462.13476562 326.71875 C-469.25688854 325.49197285 -476.2508855 324.66132883 -483.47290039 324.33056641 C-486 324 -486 324 -488 322 C-488.19105241 319.39842258 -488.2560977 316.90401898 -488.23377991 314.30180359 C-488.23478319 313.49723954 -488.23578647 312.6926755 -488.23682016 311.86373073 C-488.23777734 309.15083773 -488.22439671 306.43820011 -488.21118164 303.7253418 C-488.2089812 301.78510618 -488.20767511 299.84486937 -488.2071991 297.90463257 C-488.20425696 293.71128241 -488.19497726 289.51800966 -488.18089485 285.32468224 C-488.15859341 278.65638195 -488.15052924 271.9881104 -488.14439392 265.31977844 C-488.13298348 254.72494508 -488.11226247 244.13015377 -488.08749622 233.53534395 C-488.0434768 214.69478692 -488.0096721 195.85421871 -487.98725218 177.01362354 C-487.97898398 170.42590388 -487.96495362 163.83823005 -487.94640332 157.25053179 C-487.8866477 134.77543999 -488.03828422 112.33663741 -488.76924133 89.87249756 C-489.119885 78.88109126 -489.15147895 67.89066583 -489.13037109 56.89428711 C-489.1248181 53.44966581 -489.13047806 50.00516526 -489.13671875 46.56054688 C-489.13606069 44.33333305 -489.13478522 42.1061193 -489.1328125 39.87890625 C-489.13483673 38.86663467 -489.13686096 37.8543631 -489.13894653 36.81141663 C-489.12311195 32.08327716 -488.92924309 27.65537055 -488 23 C-487.95853267 21.27133062 -487.95815648 19.54116031 -488 17.8125 C-488.06214588 12.15722504 -487.60859151 6.61860379 -487 1 C-485.783125 0.979375 -484.56625 0.95875 -483.3125 0.9375 C-482.28576172 0.92009766 -482.28576172 0.92009766 -481.23828125 0.90234375 C-478.73501876 1.01156114 -476.4528048 1.48934781 -474 2 C-472.87779053 2.22357178 -472.87779053 2.22357178 -471.73291016 2.45166016 C-426.69359175 11.43296875 -426.69359175 11.43296875 -414.6484375 16.8515625 C-412.03743558 18.03470503 -412.03743558 18.03470503 -409.3828125 18.84375 C-392.45382343 24.63010192 -376.44787718 33.09639306 -360.96337891 41.95947266 C-358.88564861 43.12968778 -358.88564861 43.12968778 -356 44 C-356 44.66 -356 45.32 -356 46 C-355.31292969 46.24105469 -354.62585938 46.48210937 -353.91796875 46.73046875 C-350.45283294 48.23805796 -347.42641098 50.19896881 -344.3125 52.3125 C-343.67546143 52.74038818 -343.03842285 53.16827637 -342.38208008 53.60913086 C-336.09508768 57.86723212 -329.94545801 62.31568993 -323.81567383 66.79614258 C-322.72162231 67.59507935 -322.72162231 67.59507935 -321.60546875 68.41015625 C-320.95731201 68.88590088 -320.30915527 69.36164551 -319.64135742 69.85180664 C-317.99322839 71.06432016 -317.99322839 71.06432016 -316 72 C-316 72.66 -316 73.32 -316 74 C-315.43796875 74.2578125 -314.8759375 74.515625 -314.296875 74.78125 C-311.73295421 76.14169777 -309.54773635 77.72788962 -307.25 79.5 C-306.45078125 80.1084375 -305.6515625 80.716875 -304.828125 81.34375 C-304.22484375 81.8903125 -303.6215625 82.436875 -303 83 C-303 83.66 -303 84.32 -303 85 C-302.2575 85.226875 -301.515 85.45375 -300.75 85.6875 C-297.42302592 87.27537399 -296.18783693 89.06009412 -294 92 C-291.60921957 94.45054994 -289.17449843 96.83493392 -286.6875 99.1875 C-285 101 -285 101 -285 103 C-284.401875 103.268125 -283.80375 103.53625 -283.1875 103.8125 C-281.00152146 104.99917406 -279.58667406 106.09599113 -278 108 C-278 108.66 -278 109.32 -278 110 C-276.68 110.66 -275.36 111.32 -274 112 C-274 112.66 -274 113.32 -274 114 C-273.34 114 -272.68 114 -272 114 C-272 114.66 -272 115.32 -272 116 C-271.01 116.33 -270.02 116.66 -269 117 C-267.16796875 119.0390625 -267.16796875 119.0390625 -265.1875 121.625 C-261.89789215 125.85710178 -258.51688617 129.9555809 -255 134 C-250.99643364 131.10853541 -248.60847257 128.17355612 -246 124 C-244.375 121.625 -244.375 121.625 -243 120 C-242.34 120 -241.68 120 -241 120 C-240.77957031 119.46117187 -240.55914063 118.92234375 -240.33203125 118.3671875 C-238.5544585 115.20821657 -236.16509972 112.73750223 -233.6875 110.125 C-232.73168934 109.10806948 -231.77725695 108.08984174 -230.82421875 107.0703125 C-230.3554834 106.57047852 -229.88674805 106.07064453 -229.40380859 105.55566406 C-227.96016385 103.95585462 -226.61551915 102.29954889 -225.26953125 100.6171875 C-224.52058594 99.75351562 -223.77164062 98.88984375 -223 98 C-222.34 98 -221.68 98 -221 98 C-221 97.34 -221 96.68 -221 96 C-219.50390625 94.5625 -219.50390625 94.5625 -217.5625 93 C-214.84811762 90.85474956 -214.84811762 90.85474956 -213 88 C-212.34 88 -211.68 88 -211 88 C-211 87.34 -211 86.68 -211 86 C-210.34 86 -209.68 86 -209 86 C-209 85.34 -209 84.68 -209 84 C-207.42578125 82.4140625 -207.42578125 82.4140625 -205.3125 80.625 C-204.58417969 80.00753906 -203.85585938 79.39007813 -203.10546875 78.75390625 C-202.41066406 78.17511719 -201.71585938 77.59632813 -201 77 C-200.05125 76.195625 -199.1025 75.39125 -198.125 74.5625 C-196 73 -196 73 -194 73 C-193.67 72.01 -193.34 71.02 -193 70 C-191.609375 68.7109375 -191.609375 68.7109375 -189.75 67.375 C-189.03972656 66.86066406 -188.32945312 66.34632813 -187.59765625 65.81640625 C-185.63130279 64.44143729 -183.66043499 63.07459071 -181.68359375 61.71484375 C-180.81879395 61.11953857 -180.81879395 61.11953857 -179.93652344 60.51220703 C-178.78752966 59.72407813 -177.63590389 58.93977006 -176.48144531 58.15966797 C-174.3221342 56.68705669 -172.26840683 55.2724129 -170.4296875 53.40625 C-168.48852528 51.49691011 -166.34731436 50.44615124 -163.9375 49.1875 C-160.22865754 47.21367451 -156.58739014 45.18687303 -153 43 C-138.14285714 34 -138.14285714 34 -135 34 C-135 33.34 -135 32.68 -135 32 C-133.948125 31.62875 -132.89625 31.2575 -131.8125 30.875 C-128.09642212 29.48636037 -124.52681207 27.87580605 -120.9375 26.1875 C-84.52316484 9.32671 -40.46178785 -2.16437498 0 0 Z " fill="#227CD3" transform="translate(1011,256)"/>
<path d="M0 0 C0.93363433 7.62703977 1.15914421 15.15881833 1.17700195 22.83764648 C1.18357315 24.0827449 1.19014435 25.32784332 1.19691467 26.610672 C1.21649967 30.69748183 1.22828024 34.78425287 1.23828125 38.87109375 C1.2423346 40.2844806 1.24645168 41.69786726 1.25063133 43.11125374 C1.26961474 49.74110503 1.28387181 56.37094552 1.2922433 63.00081867 C1.30205473 70.64219631 1.32850349 78.28328732 1.36874419 85.92456383 C1.39885577 91.84578493 1.41370657 97.7669234 1.41702431 103.68821961 C1.41937616 107.22007155 1.42835719 110.75161474 1.45348549 114.28338432 C1.48099524 118.21172329 1.47695044 122.13967841 1.4699707 126.06811523 C1.48918579 127.82371262 1.48918579 127.82371262 1.50878906 129.61477661 C1.49837334 131.21480278 1.49837334 131.21480278 1.48774719 132.84715271 C1.49013555 133.77531516 1.4925239 134.70347761 1.49498463 135.6597662 C1 138 1 138 -0.9054842 139.82205296 C-3 141 -3 141 -5 141 C-5 141.66 -5 142.32 -5 143 C-7.97 143.99 -7.97 143.99 -11 145 C-11 145.66 -11 146.32 -11 147 C-12.010625 147.56460938 -13.02125 148.12921875 -14.0625 148.7109375 C-17.82073322 150.85984696 -21.41458364 153.20160005 -25 155.625 C-25.64590088 156.058125 -26.29180176 156.49125 -26.95727539 156.9375 C-29.60538533 158.71338572 -32.24992931 160.49453859 -34.89404297 162.27636719 C-41.79845826 166.9254251 -48.73434637 171.49395131 -55.8125 175.875 C-61.91560506 179.65831786 -67.94817716 183.53886749 -73.9375 187.5 C-74.72552002 188.01675293 -75.51354004 188.53350586 -76.32543945 189.06591797 C-77.05206787 189.54947754 -77.77869629 190.03303711 -78.52734375 190.53125 C-79.49788696 191.17416992 -79.49788696 191.17416992 -80.48803711 191.83007812 C-82.1522521 192.94308134 -82.1522521 192.94308134 -83 195 C-83.74378906 195.144375 -84.48757813 195.28875 -85.25390625 195.4375 C-88.40773674 196.08351933 -90.26389754 197.22034474 -92.9375 199 C-93.88367188 199.62003906 -94.82984375 200.24007812 -95.8046875 200.87890625 C-96.85914063 201.57886719 -97.91359375 202.27882813 -99 203 C-101.51551096 204.65409859 -104.03812854 206.29696827 -106.5625 207.9375 C-107.1702124 208.33904297 -107.7779248 208.74058594 -108.40405273 209.15429688 C-112.77468156 212 -112.77468156 212 -115 212 C-115.33 212.99 -115.66 213.98 -116 215 C-117.64261179 215.7239121 -119.31530096 216.3803135 -121 217 C-122.91835958 218.10770691 -124.81218718 219.25838174 -126.6875 220.4375 C-127.82254759 221.1477256 -128.95798837 221.85732307 -130.09375 222.56640625 C-130.70992187 222.95199707 -131.32609375 223.33758789 -131.9609375 223.73486328 C-134.22510368 225.13966562 -136.50174662 226.52257269 -138.78125 227.90234375 C-139.59376221 228.39484619 -140.40627441 228.88734863 -141.2434082 229.39477539 C-142.85541445 230.37106086 -144.46851085 231.34554889 -146.08276367 232.31811523 C-146.82244385 232.76743408 -147.56212402 233.21675293 -148.32421875 233.6796875 C-148.98510498 234.07913574 -149.64599121 234.47858398 -150.3269043 234.89013672 C-152.15621573 236.02397278 -152.15621573 236.02397278 -154 238 C-153.34 238.33 -152.68 238.66 -152 239 C-151.67 238.34 -151.34 237.68 -151 237 C-150.4225 237.680625 -149.845 238.36125 -149.25 239.0625 C-148.5075 239.701875 -147.765 240.34125 -147 241 C-144.78141747 240.86358623 -144.78141747 240.86358623 -143 240 C-143 240.99 -143 241.98 -143 243 C-141.989375 243.0825 -140.97875 243.165 -139.9375 243.25 C-135.12011723 243.84578939 -130.52880122 245.12531307 -125.85668945 246.41479492 C-121.63334884 247.57727348 -117.40320283 248.61457464 -113.125 249.5625 C-108.65603287 250.56897485 -104.37650421 251.79132788 -100.05859375 253.3125 C-97.97159998 254.00948464 -95.88975735 254.55246473 -93.75 255.0625 C-90.6674219 255.83314452 -87.90214215 256.73031281 -85 258 C-85.59082843 261.84038477 -86.71996914 264.68539984 -88.625 268.0625 C-89.16511719 269.02285156 -89.70523438 269.98320313 -90.26171875 270.97265625 C-90.83535156 271.97167969 -91.40898438 272.97070312 -92 274 C-92.56332031 274.98871094 -93.12664062 275.97742188 -93.70703125 276.99609375 C-99.73485686 287.45974589 -106.09163653 297.5003566 -113.56640625 306.98828125 C-116.11621185 310.27938372 -118.29679234 313.40789285 -120.0625 317.1875 C-121.8004068 320.87157516 -123.99552015 323.21536014 -127 326 C-129.58950968 328.84338318 -131.76403503 331.29210509 -133 335 C-133.99 335.33 -134.98 335.66 -136 336 C-137.01351664 337.65848177 -138.01120795 339.32665961 -139 341 C-140.6436814 342.68933922 -142.3142876 344.35259924 -144 346 C-145.83638751 348.12592593 -147.65039386 350.26798909 -149.44921875 352.42578125 C-149.96097656 352.94527344 -150.47273437 353.46476562 -151 354 C-151.66 354 -152.32 354 -153 354 C-153.2475 354.70125 -153.495 355.4025 -153.75 356.125 C-155.16479056 359.37901828 -156.97632642 362.09096923 -159 365 C-159.66 365.99 -160.32 366.98 -161 368 C-161.928125 368.4125 -162.85625 368.825 -163.8125 369.25 C-167.40768171 371.22382525 -168.5875991 373.01248991 -170.7734375 376.34765625 C-172.48463958 378.65287434 -174.41568467 379.81261187 -177 381 C-177.66 381 -178.32 381 -179 381 C-179 381.66 -179 382.32 -179 383 C-180.65483608 384.49877503 -182.37590512 385.92488473 -184.125 387.3125 C-185.1253125 388.11429688 -186.125625 388.91609375 -187.15625 389.7421875 C-188.0946875 390.48726562 -189.033125 391.23234375 -190 392 C-194.05452803 395.02138538 -194.05452803 395.02138538 -197 399 C-197.598125 399.28875 -198.19625 399.5775 -198.8125 399.875 C-202.14035198 401.58646673 -204.32169039 404.25152043 -206.8125 407 C-208.73009958 408.7532339 -210.24262452 409.73902133 -212.5 410.9375 C-215.87302816 412.75319388 -217.62471486 414.99130548 -220 418 C-221.64551962 418.71727778 -223.31422289 419.38325228 -225 420 C-226.6686195 421.33088862 -228.334966 422.6646284 -230 424 C-237.76066685 429.08457483 -245.80110367 433.66230735 -254 438 C-255.65 436.35 -257.3 434.7 -259 433 C-258.67 432.34 -258.34 431.68 -258 431 C-257.34 431.66 -256.68 432.32 -256 433 C-256 334.33 -256 235.66 -256 134 C-254.02 133.01 -254.02 133.01 -252 132 C-250.09353452 129.94368827 -250.09353452 129.94368827 -248.375 127.5625 C-247.78460937 126.78003906 -247.19421875 125.99757813 -246.5859375 125.19140625 C-245.35289279 123.48761788 -244.16662486 121.74993729 -243 120 C-242.34 120 -241.68 120 -241 120 C-240.77957031 119.46117187 -240.55914063 118.92234375 -240.33203125 118.3671875 C-238.5544585 115.20821657 -236.16509972 112.73750223 -233.6875 110.125 C-232.73168934 109.10806948 -231.77725695 108.08984174 -230.82421875 107.0703125 C-230.3554834 106.57047852 -229.88674805 106.07064453 -229.40380859 105.55566406 C-227.96016385 103.95585462 -226.61551915 102.29954889 -225.26953125 100.6171875 C-224.52058594 99.75351562 -223.77164063 98.88984375 -223 98 C-222.34 98 -221.68 98 -221 98 C-221 97.34 -221 96.68 -221 96 C-219.50390625 94.5625 -219.50390625 94.5625 -217.5625 93 C-214.84811762 90.85474956 -214.84811762 90.85474956 -213 88 C-212.34 88 -211.68 88 -211 88 C-211 87.34 -211 86.68 -211 86 C-210.34 86 -209.68 86 -209 86 C-209 85.34 -209 84.68 -209 84 C-207.42578125 82.4140625 -207.42578125 82.4140625 -205.3125 80.625 C-204.58417969 80.00753906 -203.85585938 79.39007813 -203.10546875 78.75390625 C-202.41066406 78.17511719 -201.71585938 77.59632813 -201 77 C-200.05125 76.195625 -199.1025 75.39125 -198.125 74.5625 C-196 73 -196 73 -194 73 C-193.505 71.515 -193.505 71.515 -193 70 C-191.609375 68.7109375 -191.609375 68.7109375 -189.75 67.375 C-189.03972656 66.86066406 -188.32945312 66.34632813 -187.59765625 65.81640625 C-185.63130279 64.44143729 -183.66043499 63.07459071 -181.68359375 61.71484375 C-181.10706055 61.31797363 -180.53052734 60.92110352 -179.93652344 60.51220703 C-178.78752966 59.72407813 -177.63590389 58.93977006 -176.48144531 58.15966797 C-174.3221342 56.68705669 -172.26840683 55.2724129 -170.4296875 53.40625 C-168.48852528 51.49691011 -166.34731436 50.44615124 -163.9375 49.1875 C-160.22865754 47.21367451 -156.58739014 45.18687303 -153 43 C-138.14285714 34 -138.14285714 34 -135 34 C-135 33.34 -135 32.68 -135 32 C-133.948125 31.62875 -132.89625 31.2575 -131.8125 30.875 C-128.09642212 29.48636037 -124.52681207 27.87580605 -120.9375 26.1875 C-84.52316484 9.32671 -40.46178785 -2.16437498 0 0 Z " fill="#4CB9F5" transform="translate(1011,256)"/>
<path d="M0 0 C0.99 0.33 1.98 0.66 3 1 C3.16604736 1.99797607 3.16604736 1.99797607 3.33544922 3.01611328 C3.84366817 6.0532636 4.35926569 9.0891172 4.875 12.125 C5.04902344 13.17171875 5.22304687 14.2184375 5.40234375 15.296875 C5.57636719 16.31523437 5.75039062 17.33359375 5.9296875 18.3828125 C6.08679199 19.31496582 6.24389648 20.24711914 6.40576172 21.20751953 C6.95078707 24.04044127 6.95078707 24.04044127 7.97216797 26.84936523 C9.17258399 30.52902528 9.86500089 34.22232449 10.515625 38.02734375 C10.72003456 39.18702415 10.72003456 39.18702415 10.92857361 40.37013245 C11.22079276 42.02930611 11.51109583 43.68881819 11.7996521 45.34863281 C12.56594593 49.75374485 13.34717699 54.15619858 14.12890625 58.55859375 C14.28615677 59.44529755 14.44340729 60.33200134 14.60542297 61.24557495 C16.04866846 69.347315 17.60113222 77.4252497 19.1875 85.5 C22.48813629 102.36488022 25.56938228 119.25015193 27.96166992 136.27026367 C28.6217552 140.8760936 29.49695778 145.3766846 30.54052734 149.91064453 C31.16628546 152.75614823 31.5921609 155.61599493 32 158.5 C32.77935784 163.7363105 33.78086093 168.85148192 35 174 C35.37718804 175.68701228 35.75222401 177.37450731 36.125 179.0625 C36.29257813 179.81660156 36.46015625 180.57070313 36.6328125 181.34765625 C36.75398438 181.89292969 36.87515625 182.43820312 37 183 C32.62457916 183 32.46368597 182.92926439 29.5625 180.125 C25.9993989 176.83547033 22.29886934 173.86156371 18.4375 170.9375 C11.66017764 165.78279559 11.66017764 165.78279559 8.5625 163.0625 C6.24151875 161.04489487 3.88662931 159.09168763 1.46875 157.19140625 C0.50859985 156.43621704 0.50859985 156.43621704 -0.47094727 155.66577148 C-3.3112905 153.44039518 -6.15411659 151.21828915 -9 149 C-11.15732191 152.23598287 -12.71007895 155.59871936 -14.3125 159.125 C-17.94101453 166.99682408 -21.97138962 174.45634825 -26.62109375 181.7734375 C-28.28603118 184.46186337 -29.85928626 187.19730472 -31.4375 189.9375 C-33.98507262 194.33233849 -36.66806119 198.57435468 -39.5234375 202.7734375 C-42.69948239 207.56271154 -45.61899764 212.53311359 -48.42578125 217.546875 C-50.05333175 220.08310755 -51.8685938 221.88065836 -54 224 C-55.41188924 225.95302188 -56.78365018 227.93537454 -58.125 229.9375 C-61.70798799 235.22176827 -65.48277326 240.3060908 -69.41308594 245.3359375 C-71.85086942 248.46779898 -74.15903243 251.64582001 -76.375 254.9375 C-79.75578344 259.85282344 -83.5889843 264.30725482 -87.50488281 268.79711914 C-91.32565635 273.17966466 -94.95150436 277.67897829 -98.4765625 282.3046875 C-98.97929688 282.86414063 -99.48203125 283.42359375 -100 284 C-100.66 284 -101.32 284 -102 284 C-102.27585937 284.58136719 -102.55171875 285.16273438 -102.8359375 285.76171875 C-106.12507115 292.08612673 -110.72035817 296.93347296 -116.16796875 301.45703125 C-119.6596164 304.1270066 -119.6596164 304.1270066 -121.3125 307.9375 C-122.43021685 311.29065054 -125.04153794 312.30945025 -128 314 C-128.66 314 -129.32 314 -130 314 C-130 315.32 -130 316.64 -130 318 C-136.75 322 -136.75 322 -139 322 C-139 323.32 -139 324.64 -139 326 C-141.28560358 328.15862561 -143.40662093 329.71979322 -146.25 331.0625 C-148.35994637 331.93497944 -148.35994637 331.93497944 -149 335 C-151 335.66666667 -153 336.33333333 -155 337 C-156.35845742 338.30772665 -157.68862018 339.64506882 -159 341 C-160.67057524 342.37499163 -162.3587698 343.72881075 -164.0625 345.0625 C-167.49215339 347.74246479 -167.49215339 347.74246479 -170.6875 350.6875 C-172 352 -172 352 -173.9375 352.9375 C-176.4734231 354.24388463 -178.01657281 355.95646895 -180 358 C-183.18289377 360.69321781 -186.41435007 362.88538594 -190 365 C-191.0828125 365.8353125 -191.0828125 365.8353125 -192.1875 366.6875 C-194 368 -194 368 -196 368 C-196 368.66 -196 369.32 -196 370 C-196.94875 370.495 -197.8975 370.99 -198.875 371.5 C-202.23094707 373.38856941 -205.05539583 375.64865093 -208 378.125 C-211.98224316 381.40091257 -214.93674087 383.1194332 -220 384 C-220 384.66 -220 385.32 -220 386 C-223.2491277 388.3208055 -226.05879291 389.43697042 -230 390 C-230 390.66 -230 391.32 -230 392 C-235.28042109 395.83111402 -241.27833861 398.74082681 -247.12890625 401.59765625 C-249.29086638 402.65363406 -251.44259647 403.72343787 -253.58984375 404.80859375 C-262.63205439 409.37439527 -271.74824454 413.75571154 -280.93164062 418.02978516 C-282.95584343 418.97928727 -284.97101792 419.94571084 -286.984375 420.91796875 C-296.11747923 425.30628863 -305.22388532 429.06951414 -315.1875 431.125 C-317.0746875 431.558125 -317.0746875 431.558125 -319 432 C-319.33 432.66 -319.66 433.32 -320 434 C-321.32 434 -322.64 434 -324 434 C-324.33 434.66 -324.66 435.32 -325 436 C-327.32716 436.37400786 -329.66117862 436.70764733 -332 437 C-332.33 437.33 -332.66 437.66 -333 438 C-335.33333333 438.33333333 -337.66666667 438.66666667 -340 439 C-340.33 439.33 -340.66 439.66 -341 440 C-346.25537574 441.50153593 -351.58883977 442.25183425 -357.015625 442.78515625 C-359.09624771 442.98049728 -359.09624771 442.98049728 -361.5 443.5 C-364.52736688 444.10547338 -367.55075985 444.41116736 -370.62109375 444.71875 C-372.33318036 444.92116418 -374.03805679 445.18833316 -375.734375 445.49609375 C-379.75886164 446.11709707 -383.74880185 446.35436769 -387.8125 446.5625 C-388.56853516 446.60568359 -389.32457031 446.64886719 -390.10351562 446.69335938 C-392.40202195 446.81680856 -394.69974794 446.91534298 -397 447 C-397.81645996 447.03206543 -398.63291992 447.06413086 -399.47412109 447.09716797 C-400.27027832 447.11537598 -401.06643555 447.13358398 -401.88671875 447.15234375 C-402.60432373 447.17159912 -403.32192871 447.19085449 -404.0612793 447.21069336 C-406 447 -406 447 -409 445 C-408.34 445 -407.68 445 -407 445 C-406.67 444.34 -406.34 443.68 -406 443 C-405.01 443.33 -404.02 443.66 -403 444 C-403 443.34 -403 442.68 -403 442 C-401.68515625 441.89042969 -400.3703125 441.78085937 -399.015625 441.66796875 C-394.30441309 441.13460668 -390.1736697 439.98249369 -385.75 438.3125 C-384.97148682 438.02431396 -384.19297363 437.73612793 -383.39086914 437.43920898 C-373.84087442 433.7589849 -364.68537805 429.16938184 -355.52441406 424.62426758 C-354.90862991 424.31986755 -354.29284576 424.01546753 -353.65840149 423.70184326 C-351.96606217 422.86345386 -350.27675956 422.01894279 -348.58764648 421.17407227 C-346 420 -346 420 -344 420 C-344 419.34 -344 418.68 -344 418 C-343.01 418 -342.02 418 -341 418 C-341 417.34 -341 416.68 -341 416 C-339.989375 415.5875 -338.97875 415.175 -337.9375 414.75 C-334.10395089 413.11487395 -330.5847012 411.12155786 -327 409 C-330.21830218 407.92723261 -331.25253849 408.0649236 -334.47265625 408.7421875 C-335.36299561 408.92104492 -336.25333496 409.09990234 -337.1706543 409.28417969 C-338.12496338 409.47915039 -339.07927246 409.67412109 -340.0625 409.875 C-356.38228616 413.01295937 -372.42791673 413.16535338 -389 413 C-389 412.34 -389 411.68 -389 411 C-390.12792969 410.92523437 -391.25585938 410.85046875 -392.41796875 410.7734375 C-425.54145036 408.17202367 -459.76213215 393.76635138 -485.19921875 372.328125 C-487.82999834 370.00007844 -487.82999834 370.00007844 -490.4375 368.625 C-493.48786543 366.69062192 -495.72669154 364.35431107 -498.23828125 361.77734375 C-502.12872915 357.85239076 -505.75617652 354.93193497 -511 353 C-513.3125 351.625 -513.3125 351.625 -515 350 C-515 348.68 -515 347.36 -515 346 C-515.66 346 -516.32 346 -517 346 C-517.804375 344.4221875 -517.804375 344.4221875 -518.625 342.8125 C-520.24277168 339.94984727 -521.37203986 338.68996678 -524 336.5 C-526.81577951 334.15351707 -528.19157422 332.23286701 -529.875 329.02734375 C-532.82441218 323.71225722 -536.33974215 318.6216472 -540.6875 314.375 C-543.68426399 311.29724239 -545.63439849 308.0803515 -547 304 C-546.75 301 -546.75 301 -546 299 C-541.47025774 300.38408791 -539.88584406 302.35025604 -537 306 C-535.77418284 306.92864937 -534.52245816 307.82386374 -533.25 308.6875 C-531.64125 309.8321875 -531.64125 309.8321875 -530 311 C-530 311.66 -530 312.32 -530 313 C-528.02 313.66 -526.04 314.32 -524 315 C-524 315.66 -524 316.32 -524 317 C-523.21625 317.103125 -522.4325 317.20625 -521.625 317.3125 C-519 318 -519 318 -517 321 C-514.44816596 322.20450304 -514.44816596 322.20450304 -512 323 C-512 323.66 -512 324.32 -512 325 C-511.236875 325.12375 -510.47375 325.2475 -509.6875 325.375 C-507 326 -507 326 -504 328 C-504 328.66 -504 329.32 -504 330 C-503.43152344 330.17015625 -502.86304688 330.3403125 -502.27734375 330.515625 C-496.08867854 332.45797735 -491.0536618 334.99101197 -485.625 338.5625 C-482.73975173 340.14251691 -479.93758921 341.07601867 -476.80859375 342.0625 C-474.07749017 342.97413402 -471.40434809 343.99655008 -468.72387695 345.04638672 C-423.71295665 362.51630235 -374.83241052 363.02886241 -330 345 C-328.90816406 344.5771875 -327.81632813 344.154375 -326.69140625 343.71875 C-320.87401996 341.40661685 -315.5982648 338.72446868 -310.296875 335.3984375 C-308.23476697 334.14293635 -306.18399316 333.0846088 -304 332.0625 C-299.7730454 330.02603199 -296.10570678 327.3221874 -292.3046875 324.58984375 C-289.6558313 322.76258193 -286.87619549 321.43809774 -284 320 C-276.41025956 315.04063892 -269.2142296 309.48320132 -262 304 C-261.10023438 303.32066406 -260.20046875 302.64132812 -259.2734375 301.94140625 C-258.05527344 301.01134766 -258.05527344 301.01134766 -256.8125 300.0625 C-256.09707031 299.51722656 -255.38164063 298.97195313 -254.64453125 298.41015625 C-252.87855857 297.08034776 -252.87855857 297.08034776 -252 295 C-251.30519531 294.59136719 -250.61039063 294.18273437 -249.89453125 293.76171875 C-246.1409383 291.47714329 -242.98348349 288.70522286 -239.6875 285.8125 C-238.68674438 284.94020752 -238.68674438 284.94020752 -237.66577148 284.05029297 C-233.53516526 280.42398444 -229.56789202 276.69494327 -225.7421875 272.74609375 C-223.96077551 270.96068756 -222.10563303 269.32446092 -220.1875 267.6875 C-212.88901048 261.39470786 -206.11387805 254.46732857 -199.859375 247.140625 C-197.99804874 244.99775359 -196.0838903 242.90998994 -194.15454102 240.82836914 C-189.6907254 236.01073813 -185.31991001 231.12637437 -181.0625 226.125 C-180.61422852 225.60204346 -180.16595703 225.07908691 -179.70410156 224.5402832 C-177.55419243 221.99406063 -175.59181423 219.42656209 -173.80859375 216.6171875 C-173.21175781 215.75351562 -172.61492187 214.88984375 -172 214 C-171.34 214 -170.68 214 -170 214 C-169.76925781 213.29101562 -169.53851562 212.58203125 -169.30078125 211.8515625 C-167.73571575 208.42063813 -165.71256033 206.17733636 -163.1875 203.375 C-155.98311736 195.14452035 -150.04823794 186.092473 -144 177 C-143.06720944 175.61143928 -142.1336588 174.22338873 -141.19921875 172.8359375 C-133.74420225 161.73658231 -126.60351341 150.49427632 -119.875 138.9375 C-119.28074219 137.92623047 -118.68648437 136.91496094 -118.07421875 135.87304688 C-111.32118801 124.95872409 -111.32118801 124.95872409 -107 113 C-108.86591797 112.63648438 -108.86591797 112.63648438 -110.76953125 112.265625 C-118.82579263 110.65664232 -126.5094467 109.01035994 -134.15625 105.94921875 C-140.24735128 103.91606269 -146.67758492 103.04712521 -153 102 C-153.33 101.01 -153.66 100.02 -154 99 C-152 97 -152 97 -149.9375 96.5 C-149.298125 96.335 -148.65875 96.17 -148 96 C-147.67 95.34 -147.34 94.68 -147 94 C-145.29176794 93.24443582 -143.5804527 92.4942633 -141.84765625 91.796875 C-139.78561391 90.95605367 -139.78561391 90.95605367 -137.1875 89.3125 C-135 88 -135 88 -133 88 C-133 87.34 -133 86.68 -133 86 C-128.61538462 83 -128.61538462 83 -126 83 C-126 82.34 -126 81.68 -126 81 C-124.88625 80.484375 -123.7725 79.96875 -122.625 79.4375 C-118.46492046 77.35384277 -114.80518164 74.82923914 -111.03125 72.12109375 C-104.49134735 67.54484744 -97.7204495 63.3047513 -91 59 C-89.89011719 58.2884375 -88.78023437 57.576875 -87.63671875 56.84375 C-80.43765356 52.24570025 -80.43765356 52.24570025 -77.328125 50.5 C-74.75088633 49.05859269 -74.75088633 49.05859269 -73 46 C-71.31520934 45.25968195 -69.62706952 44.52533715 -67.91748047 43.84423828 C-64.70911638 42.43164304 -61.93305824 40.43121337 -59.0625 38.4375 C-53.67770003 34.76774287 -48.23358082 31.23362546 -42.6875 27.8125 C-37.43920428 24.56845247 -32.34442626 21.19047196 -27.3203125 17.60546875 C-16.32846715 10 -16.32846715 10 -13 10 C-13 9.34 -13 8.68 -13 8 C-12.09507812 7.51080078 -12.09507812 7.51080078 -11.171875 7.01171875 C-10.37265625 6.57472656 -9.5734375 6.13773437 -8.75 5.6875 C-7.96109375 5.25824219 -7.1721875 4.82898438 -6.359375 4.38671875 C-3.96061009 3.05888023 -3.96061009 3.05888023 -1.890625 1.26953125 C-0.95476562 0.64111328 -0.95476562 0.64111328 0 0 Z " fill="#247ED5" transform="translate(1076,385)"/>
<path d="M0 0 C-0.00523682 1.29623291 -0.01047363 2.59246582 -0.01586914 3.92797852 C-0.03402763 8.75674748 -0.04547158 13.58551345 -0.05493164 18.41430664 C-0.0599471 20.50057483 -0.06676105 22.58683953 -0.07543945 24.6730957 C-0.08762736 27.67920801 -0.09325631 30.68527366 -0.09765625 33.69140625 C-0.10281754 34.61772354 -0.10797882 35.54404083 -0.11329651 36.49842834 C-0.11362966 40.38163681 -0.05683526 44.14190984 0.53735352 47.98413086 C1.01070799 51.06980252 0.6183238 52.98567147 0 56 C0.33241964 58.00015207 0.66588145 60.00013103 1 62 C1.34194143 69.65345379 0.91875809 77.21975307 0.12109375 84.83203125 C0.00217776 87.94302693 0.35848829 90.79964572 0.79321289 93.87426758 C1.1538997 97.58205985 0.8034808 101.23438854 0.5 104.9375 C0.2872728 107.62827278 0.11924043 110.30218531 0 113 C0.33 113.33 0.66 113.66 1 114 C1.1613058 117.06481021 0.98150241 119.05549278 0 122 C-0.09336436 123.62031208 -0.13069647 125.24418914 -0.1328125 126.8671875 C-0.13466553 127.82947266 -0.13651855 128.79175781 -0.13842773 129.78320312 C-0.13178101 131.31364258 -0.13178101 131.31364258 -0.125 132.875 C-0.1237915 133.91333984 -0.12258301 134.95167969 -0.12133789 136.02148438 C-0.08849746 142.49256458 0.14711363 148.84870249 0.87890625 155.28125 C1 158 1 158 0.52026367 160.94799805 C-0.2531275 166.12807121 -0.18199261 171.32329521 -0.203125 176.55078125 C-0.21167511 178.19351265 -0.21167511 178.19351265 -0.22039795 179.86943054 C-0.22980842 182.17311649 -0.23636613 184.47681566 -0.24023438 186.78051758 C-0.25001549 190.31810358 -0.28110613 193.8551264 -0.3125 197.39257812 C-0.31902338 199.63280906 -0.32427645 201.87304413 -0.328125 204.11328125 C-0.3404718 205.17468826 -0.3528186 206.23609528 -0.36553955 207.32966614 C-0.36253845 208.30795883 -0.35953735 209.28625153 -0.35644531 210.29418945 C-0.36009094 211.15687943 -0.36373657 212.0195694 -0.36749268 212.90840149 C-0.24622009 213.598629 -0.12494751 214.28885651 0 215 C0.99 215.66 1.98 216.32 3 217 C2.34 217.33 1.68 217.66 1 218 C-0.7345502 226.37814624 -0.15084604 235.42984491 -0.125 243.9375 C-0.12886719 245.23751953 -0.13273437 246.53753906 -0.13671875 247.87695312 C-0.13542969 249.12283203 -0.13414062 250.36871094 -0.1328125 251.65234375 C-0.13112061 253.33831665 -0.13112061 253.33831665 -0.12939453 255.05834961 C-0.0185513 257.57825537 0.35441011 259.5873776 1 262 C0.89076947 264.2119183 0.71888463 266.42122973 0.5 268.625 C-0.13229491 272.96453409 -0.13229491 272.96453409 1 277 C0.75779783 278.55701392 0.51242552 280.11358076 0.25390625 281.66796875 C-0.1895322 285.74078036 -0.01523826 289.82308681 0.0625 293.9140625 C0.00479941 296.76302899 -0.40350375 299.22594016 -1 302 C-0.16339844 302.05534912 0.67320312 302.11069824 1.53515625 302.16772461 C4.67379225 302.37648909 7.81227931 302.5873432 10.95068359 302.79956055 C12.96311002 302.93501694 14.97569465 303.06811644 16.98828125 303.20117188 C27.96597626 303.94588988 27.96597626 303.94588988 32.5859375 304.5703125 C36.54308626 305.06835182 40.31462824 304.98553416 44.2890625 304.83984375 C47.48661293 305.02874803 49.97425765 305.94852696 53 307 C55.92329705 307.71242094 58.86811894 308.31885777 61.8125 308.9375 C67.2627457 310.11628549 72.58881342 311.33226768 77.83984375 313.234375 C80.49118947 314.17409247 83.17727361 314.95317468 85.875 315.75 C93.91631326 318.20837115 101.76260543 321.15910035 109.63085938 324.11523438 C111.89022144 324.95900273 114.1546611 325.78697428 116.421875 326.609375 C123.14099871 329.06070475 129.67583168 331.61159439 135.984375 335.01953125 C137.95351398 336.07607354 137.95351398 336.07607354 140.078125 336.44921875 C142 337 142 337 143.3684082 338.39477539 C145.15005039 340.14762552 146.80480037 341.10186234 149.02734375 342.234375 C149.81407471 342.64026855 150.60080566 343.04616211 151.41137695 343.46435547 C152.66180786 344.10074951 152.66180786 344.10074951 153.9375 344.75 C161.4294067 348.62661379 168.79494354 352.60667289 176 357 C176.67933594 357.41121094 177.35867188 357.82242187 178.05859375 358.24609375 C179.75 359.3125 179.75 359.3125 182 361 C182 361.66 182 362.32 182 363 C183.98 363.66 185.96 364.32 188 365 C188 365.66 188 366.32 188 367 C188.680625 367.20882813 189.36125 367.41765625 190.0625 367.6328125 C193.96607328 369.44963517 196.80343334 372.02677714 200 374.875 C201.20770451 375.93561229 202.41602667 376.99552174 203.625 378.0546875 C204.19927734 378.55887207 204.77355469 379.06305664 205.36523438 379.58251953 C208.2843918 382.11367664 211.1103811 384.51070961 214.5 386.375 C217.7927423 388.51528249 219.65341166 390.84886709 222 394 C222 394.66 222 395.32 222 396 C221.360625 396.2475 220.72125 396.495 220.0625 396.75 C216.68545334 398.12838639 213.38967594 399.65056108 210.0859375 401.1953125 C208 402 208 402 205 402 C205 402.99 205 403.98 205 405 C202 406 202 406 200.125 405.21484375 C199.42375 404.79332031 198.7225 404.37179687 198 403.9375 C197.20078125 403.46957031 196.4015625 403.00164062 195.578125 402.51953125 C194.72734375 402.01808594 193.8765625 401.51664063 193 401 C191.2539954 400.03440655 189.50384371 399.07628073 187.75 398.125 C186.8321875 397.62613281 185.914375 397.12726563 184.96875 396.61328125 C183.9890625 396.08089844 183.009375 395.54851562 182 395 C180.8965625 394.39542969 179.793125 393.79085938 178.65625 393.16796875 C177.5321875 392.55566406 176.408125 391.94335938 175.25 391.3125 C173.71085937 390.47138672 173.71085937 390.47138672 172.140625 389.61328125 C168.81728577 387.90614306 165.44408465 386.44674339 162 385 C160.89785156 384.50242187 159.79570313 384.00484375 158.66015625 383.4921875 C134.74710191 372.74299695 109.81754263 363.84311766 84 359 C82.87078125 358.77147339 82.87078125 358.77147339 81.71875 358.53833008 C63.6852003 354.96757064 45.72255477 352.40141096 27.37939453 351.1875 C24.62277254 350.97027389 21.89532149 350.59055143 19.15478516 350.22753906 C14.41266113 349.72678452 9.63850931 349.65280823 4.875 349.5 C3.7202417 349.46011963 2.5654834 349.42023926 1.37573242 349.37915039 C-2.41606536 349.24915024 -6.20801705 349.12447361 -10 349 C-12.81382218 348.90554088 -15.62761248 348.81014511 -18.44140625 348.71484375 C-25.62746218 348.4721833 -32.81367734 348.23464004 -40 348 C-40.98314212 343.89775021 -41.12573147 340.06373261 -41.12698364 335.85087585 C-41.1285454 335.13983108 -41.13010716 334.4287863 -41.13171625 333.69619471 C-41.13570838 331.31135798 -41.13254745 328.92658525 -41.12939453 326.54174805 C-41.13072482 324.8212035 -41.13247771 323.10065924 -41.13461876 321.38011551 C-41.13913749 316.66711516 -41.13727755 311.9541361 -41.13419914 307.24113536 C-41.13233322 303.23190908 -41.1340296 299.22268755 -41.13576198 295.21346146 C-41.14087854 283.29504725 -41.1363543 271.37664888 -41.12897491 259.45823669 C-41.12550493 253.83519707 -41.12322348 248.21215778 -41.12139618 242.58911741 C-41.10243619 184.310122 -41.02156557 126.03120443 -40.66626704 67.75317651 C-40.63332172 62.30245676 -40.60508971 56.85172538 -40.57867432 51.40097046 C-40.54662405 44.84432538 -40.50713218 38.28777741 -40.45741057 31.73124152 C-40.43249017 28.43834621 -40.41141678 25.14551495 -40.3966217 21.85255623 C-40.38002474 18.33612889 -40.35121098 14.82002317 -40.31884766 11.30371094 C-40.3166881 10.27500728 -40.31452854 9.24630362 -40.31230354 8.18642712 C-40.30113943 7.25863603 -40.28997532 6.33084494 -40.2784729 5.37493896 C-40.27294214 4.57204311 -40.26741138 3.76914726 -40.26171303 2.94192123 C-40 1 -40 1 -38 -1 C-35.47093031 -1.26993787 -33.04366942 -1.42166677 -30.5078125 -1.484375 C-29.39428909 -1.52053925 -29.39428909 -1.52053925 -28.25827026 -1.55743408 C-26.68648076 -1.60575874 -25.11453285 -1.64914443 -23.54248047 -1.68798828 C-21.14088375 -1.74959256 -18.74070301 -1.83269906 -16.33984375 -1.91796875 C-14.81253722 -1.96224083 -13.28519349 -2.00525091 -11.7578125 -2.046875 C-11.04102325 -2.07279724 -10.32423401 -2.09871948 -9.58572388 -2.12542725 C-5.75907929 -2.20330848 -3.32178471 -1.84821618 0 0 Z " fill="#0D3D96" transform="translate(501,299)"/>
<path d="M0 0 C-0.5418708 7.20020103 -2.17424811 13.53301543 -4.4375 20.375 C-4.97310547 22.00695312 -4.97310547 22.00695312 -5.51953125 23.671875 C-6.66370797 27.12018691 -7.82872292 30.56080659 -9 34 C-9.3623877 35.07668945 -9.72477539 36.15337891 -10.09814453 37.26269531 C-21.40285401 70.49520884 -37.6395699 103.50326023 -57.79345703 132.26513672 C-59.04910594 134.07060842 -60.27480281 135.89379079 -61.49609375 137.72265625 C-74.26003136 156.74013109 -88.43597501 174.70271115 -103.8515625 191.6328125 C-105.23494352 193.15704686 -106.60585021 194.69274506 -107.9609375 196.2421875 C-112.95956945 201.93028593 -118.21847055 207.32441773 -123.5625 212.6875 C-124.27083984 213.40043213 -124.97917969 214.11336426 -125.70898438 214.84790039 C-130.31097161 219.43655935 -135.07534508 223.76230216 -140 228 C-141.16827324 229.03334274 -142.33498599 230.06845288 -143.5 231.10546875 C-157.43978826 243.4243514 -172.34487216 254.16364896 -187.79150391 264.50878906 C-189.81857752 265.87750072 -191.82334466 267.27309577 -193.82421875 268.6796875 C-200.7890408 273.48661142 -207.16458092 276.38573749 -215.33203125 278.34375 C-217.90508474 278.73250321 -217.90508474 278.73250321 -219 280 C-238.46473534 284.89769474 -258.07136428 285.19884448 -278 285 C-278 284.34 -278 283.68 -278 283 C-279.12792969 282.92523437 -280.25585938 282.85046875 -281.41796875 282.7734375 C-314.54145036 280.17202367 -348.76213215 265.76635138 -374.19921875 244.328125 C-376.82999834 242.00007844 -376.82999834 242.00007844 -379.4375 240.625 C-382.48786543 238.69062192 -384.72669154 236.35431107 -387.23828125 233.77734375 C-391.12872915 229.85239076 -394.75617652 226.93193497 -400 225 C-402.3125 223.625 -402.3125 223.625 -404 222 C-404 220.68 -404 219.36 -404 218 C-404.66 218 -405.32 218 -406 218 C-406.804375 216.4221875 -406.804375 216.4221875 -407.625 214.8125 C-409.24277168 211.94984727 -410.37203986 210.68996678 -413 208.5 C-415.81577951 206.15351707 -417.19157422 204.23286701 -418.875 201.02734375 C-421.82441218 195.71225722 -425.33974215 190.6216472 -429.6875 186.375 C-432.68426399 183.29724239 -434.63439849 180.0803515 -436 176 C-435.75 173 -435.75 173 -435 171 C-430.47025774 172.38408791 -428.88584406 174.35025604 -426 178 C-424.77418284 178.92864937 -423.52245816 179.82386374 -422.25 180.6875 C-420.64125 181.8321875 -420.64125 181.8321875 -419 183 C-419 183.66 -419 184.32 -419 185 C-417.02 185.66 -415.04 186.32 -413 187 C-413 187.66 -413 188.32 -413 189 C-411.824375 189.1546875 -411.824375 189.1546875 -410.625 189.3125 C-408 190 -408 190 -406 193 C-403.44816596 194.20450304 -403.44816596 194.20450304 -401 195 C-401 195.66 -401 196.32 -401 197 C-399.8553125 197.185625 -399.8553125 197.185625 -398.6875 197.375 C-396 198 -396 198 -393 200 C-393 200.66 -393 201.32 -393 202 C-392.43152344 202.17015625 -391.86304688 202.3403125 -391.27734375 202.515625 C-385.08867854 204.45797735 -380.0536618 206.99101197 -374.625 210.5625 C-371.73975173 212.14251691 -368.93758921 213.07601867 -365.80859375 214.0625 C-363.07749017 214.97413402 -360.40434809 215.99655008 -357.72387695 217.04638672 C-312.71295665 234.51630235 -263.83241052 235.02886241 -219 217 C-217.90816406 216.5771875 -216.81632813 216.154375 -215.69140625 215.71875 C-209.87401996 213.40661685 -204.5982648 210.72446868 -199.296875 207.3984375 C-197.23476697 206.14293635 -195.18399316 205.0846088 -193 204.0625 C-188.7730454 202.02603199 -185.10570678 199.3221874 -181.3046875 196.58984375 C-178.6558313 194.76258193 -175.87619549 193.43809774 -173 192 C-165.41025956 187.04063892 -158.2142296 181.48320132 -151 176 C-150.10023438 175.32066406 -149.20046875 174.64132812 -148.2734375 173.94140625 C-147.46132813 173.32136719 -146.64921875 172.70132813 -145.8125 172.0625 C-145.09707031 171.51722656 -144.38164063 170.97195313 -143.64453125 170.41015625 C-141.87855857 169.08034776 -141.87855857 169.08034776 -141 167 C-140.30519531 166.59136719 -139.61039063 166.18273437 -138.89453125 165.76171875 C-135.1409383 163.47714329 -131.98348349 160.70522286 -128.6875 157.8125 C-128.02032959 157.23097168 -127.35315918 156.64944336 -126.66577148 156.05029297 C-122.53516526 152.42398444 -118.56789202 148.69494327 -114.7421875 144.74609375 C-112.96077551 142.96068756 -111.10563303 141.32446092 -109.1875 139.6875 C-101.88901048 133.39470786 -95.11387805 126.46732857 -88.859375 119.140625 C-86.99804874 116.99775359 -85.0838903 114.90998994 -83.15454102 112.82836914 C-78.6907254 108.01073813 -74.31991001 103.12637437 -70.0625 98.125 C-69.61422852 97.60204346 -69.16595703 97.07908691 -68.70410156 96.5402832 C-66.55419243 93.99406063 -64.59181423 91.42656209 -62.80859375 88.6171875 C-62.21175781 87.75351562 -61.61492187 86.88984375 -61 86 C-60.34 86 -59.68 86 -59 86 C-58.76925781 85.29101562 -58.53851562 84.58203125 -58.30078125 83.8515625 C-56.73571575 80.42063813 -54.71256033 78.17733636 -52.1875 75.375 C-44.98311736 67.14452035 -39.04823794 58.092473 -33 49 C-32.06720944 47.61143928 -31.1336588 46.22338873 -30.19921875 44.8359375 C-27.77965341 41.23681151 -25.38492352 37.62218259 -23 34 C-22.43410156 33.14277344 -21.86820313 32.28554688 -21.28515625 31.40234375 C-18.31848226 26.82539683 -15.50459227 22.1719098 -12.75 17.46484375 C-12.16516846 16.46654541 -11.58033691 15.46824707 -10.9777832 14.43969727 C-9.79402152 12.41327419 -8.6153787 10.38385127 -7.44213867 8.35131836 C-6.8979126 7.41811768 -6.35368652 6.48491699 -5.79296875 5.5234375 C-5.3033667 4.67700684 -4.81376465 3.83057617 -4.30932617 2.95849609 C-2.33146348 0 -2.33146348 0 0 0 Z " fill="#0F4097" transform="translate(965,513)"/>
<path d="M0 0 C0.80057529 4.70337984 1.07306053 9.11668265 0.9375 13.88671875 C0.90601787 15.98241962 0.90601787 15.98241962 1.5625 17.83203125 C2 20 2 20 1.53125 23.20507812 C1.02268174 26.83797569 0.90063139 30.22315667 0.9375 33.88671875 C0.94910156 35.7884082 0.94910156 35.7884082 0.9609375 37.72851562 C0.97382812 39.03498047 0.98671875 40.34144531 1 41.6875 C1.02550642 44.2955314 1.04654014 46.90361146 1.0625 49.51171875 C1.07410156 50.66115967 1.08570313 51.81060059 1.09765625 52.99487305 C1.01405091 55.56761828 0.91825283 57.60566435 0 60 C-2.4921875 61.68359375 -2.4921875 61.68359375 -5.875 63.4375 C-13.13873874 67.33450451 -19.85144711 71.88536701 -26.60107422 76.60717773 C-27.76147217 77.41650757 -27.76147217 77.41650757 -28.9453125 78.2421875 C-29.63125488 78.7254248 -30.31719727 79.20866211 -31.02392578 79.70654297 C-32.95872839 80.9729853 -34.91205369 82.01060414 -37 83 C-38.71987206 81.28012794 -38.11974788 79.09122971 -38.12442017 76.79867554 C-38.12082489 76.05421173 -38.11722961 75.30974792 -38.11352539 74.54272461 C-38.11367142 73.76229294 -38.11381744 72.98186127 -38.1139679 72.17778015 C-38.11326858 69.5859402 -38.10547536 66.99417122 -38.09765625 64.40234375 C-38.09579213 62.6101536 -38.0943682 60.81796294 -38.09336853 59.02577209 C-38.08954284 54.29929203 -38.07971212 49.57284248 -38.06866455 44.84637451 C-38.05845153 40.0271445 -38.05387115 35.20790958 -38.04882812 30.38867188 C-38.03808989 20.92576781 -38.02101286 11.46288644 -38 2 C-34.65253187 0.88417729 -32.17663711 0.9017783 -28.65234375 0.9375 C-26.78545898 0.94910156 -26.78545898 0.94910156 -24.88085938 0.9609375 C-23.57955078 0.97382813 -22.27824219 0.98671875 -20.9375 1 C-18.3633225 1.02542398 -15.78909699 1.04648598 -13.21484375 1.0625 C-12.07136475 1.07410156 -10.92788574 1.08570313 -9.74975586 1.09765625 C-6.28544036 0.97462276 -3.60245704 -0.0948015 0 0 Z " fill="#4CB9F5" transform="translate(1074,297)"/>
<path d="M0 0 C1.32 0 2.64 0 4 0 C4.02329471 7.38954658 4.04100164 14.77908509 4.05181217 22.16866112 C4.05700384 25.60089806 4.06403297 29.03310967 4.07543945 32.46533203 C4.0885054 36.42219731 4.09325891 40.37905275 4.09765625 44.3359375 C4.10281754 45.55300385 4.10797882 46.77007019 4.11329651 48.02401733 C4.11373415 54.7479236 3.84170372 61.32661548 3 68 C-3.79587476 68.77584952 -10.47247003 69.16064173 -17.3125 69.125 C-18.2202417 69.12306641 -19.1279834 69.12113281 -20.06323242 69.11914062 C-27.08084138 69.0742718 -34.0167237 68.7255352 -41 68 C-39.57599459 64.88542659 -37.84173763 62.40577854 -35.6875 59.75 C-32.80644293 56.13067205 -30.33587822 52.44814174 -28.04296875 48.43359375 C-27.69878906 47.96050781 -27.35460938 47.48742187 -27 47 C-26.34 47 -25.68 47 -25 47 C-24.88011719 46.41839111 -24.76023437 45.83678223 -24.63671875 45.23754883 C-23.97378007 42.90785827 -23.09255746 41.24850168 -21.8125 39.19921875 C-21.36527588 38.47669922 -20.91805176 37.75417969 -20.45727539 37.00976562 C-19.97637451 36.24341797 -19.49547363 35.47707031 -19 34.6875 C-17.9984113 33.06658332 -16.99711369 31.44548674 -15.99609375 29.82421875 C-14.55364515 27.49993999 -13.10984457 25.1765144 -11.66455078 22.85400391 C-7.09045437 15.48096644 -2.7846303 8.27599915 0 0 Z " fill="#4FBAF6" transform="translate(1071,575)"/>
<path d="M0 0 C1.216875 -0.020625 2.43375 -0.04125 3.6875 -0.0625 C4.71423828 -0.07990234 4.71423828 -0.07990234 5.76171875 -0.09765625 C8.26816704 0.01170013 10.5503191 0.46226517 13 1 C13.88300781 1.17660156 14.76601563 1.35320312 15.67578125 1.53515625 C17.44661458 1.88932292 19.21744792 2.24348958 20.98828125 2.59765625 C21.98408203 2.79681641 21.98408203 2.79681641 23 3 C23 3.33 23 3.66 23 4 C20.64558284 3.85758352 18.29152516 3.71115192 15.9375 3.5625 C14.62652344 3.48128906 13.31554687 3.40007812 11.96484375 3.31640625 C8.29531561 3.02356706 4.64419644 2.52059949 1 2 C1 107.27 1 212.54 1 321 C5.62 321.33 10.24 321.66 15 322 C16.65 322.33 18.3 322.66 20 323 C20 323.33 20 323.66 20 324 C16.8742604 323.89037184 13.74975219 323.75968759 10.625 323.625 C9.73554687 323.5940625 8.84609375 323.563125 7.9296875 323.53125 C7.07890625 323.49257813 6.228125 323.45390625 5.3515625 323.4140625 C4.56604004 323.3826416 3.78051758 323.3512207 2.97119141 323.31884766 C1 323 1 323 -1 321 C-1.19105241 318.39842258 -1.2560977 315.90401898 -1.23377991 313.30180359 C-1.23478319 312.49723954 -1.23578647 311.6926755 -1.23682016 310.86373073 C-1.23777734 308.15083773 -1.22439671 305.43820011 -1.21118164 302.7253418 C-1.2089812 300.78510618 -1.20767511 298.84486937 -1.2071991 296.90463257 C-1.20425696 292.71128241 -1.19497726 288.51800966 -1.18089485 284.32468224 C-1.15859341 277.65638195 -1.15052924 270.9881104 -1.14439392 264.31977844 C-1.13298348 253.72494508 -1.11226247 243.13015377 -1.08749622 232.53534395 C-1.0434768 213.69478692 -1.0096721 194.85421871 -0.98725218 176.01362354 C-0.97898398 169.42590388 -0.96495362 162.83823005 -0.94640332 156.25053179 C-0.8866477 133.77543999 -1.03828422 111.33663741 -1.76924133 88.87249756 C-2.119885 77.88109126 -2.15147895 66.89066583 -2.13037109 55.89428711 C-2.1248181 52.44966581 -2.13047806 49.00516526 -2.13671875 45.56054688 C-2.13606069 43.33333305 -2.13478522 41.1061193 -2.1328125 38.87890625 C-2.13483673 37.86663467 -2.13686096 36.8543631 -2.13894653 35.81141663 C-2.12311195 31.08327716 -1.92924309 26.65537055 -1 22 C-0.95853267 20.27133062 -0.95815648 18.54116031 -1 16.8125 C-1.06214588 11.15722504 -0.60859151 5.61860379 0 0 Z " fill="#D3E4F5" transform="translate(524,257)"/>
<path d="M0 0 C-0.33 0.33 -0.66 0.66 -1 1 C-12.55 1 -24.1 1 -36 1 C-36.33 115.18 -36.66 229.36 -37 347 C-23.8 347 -10.6 347 3 347 C21.44889356 347.97494153 39.68183096 349.68324259 58 352 C58 352.33 58 352.66 58 353 C57.14921875 352.93941406 56.2984375 352.87882812 55.421875 352.81640625 C49.51330074 352.40783463 43.60807018 352.01897299 37.69140625 351.74609375 C36.35287598 351.6840979 36.35287598 351.6840979 34.98730469 351.62084961 C33.22639379 351.54129038 31.46532267 351.46518992 29.70410156 351.39282227 C28.48352051 351.33759399 28.48352051 351.33759399 27.23828125 351.28125 C26.51680908 351.25095703 25.79533691 351.22066406 25.05200195 351.18945312 C23 351 23 351 21.06274414 350.5 C18.59576043 349.90201413 16.29524196 349.80236731 13.7578125 349.71875 C12.17867065 349.66352173 12.17867065 349.66352173 10.56762695 349.60717773 C9.43156006 349.57180908 8.29549316 349.53644043 7.125 349.5 C5.95219482 349.46011963 4.77938965 349.42023926 3.57104492 349.37915039 C0.38910755 349.27166808 -2.79292732 349.16797249 -5.97503662 349.06573486 C-9.46915385 348.95230796 -12.96308225 348.83332101 -16.45703125 348.71484375 C-23.63787396 348.47201281 -30.8188789 348.2344702 -38 348 C-38.98314212 343.89775021 -39.12573147 340.06373261 -39.12698364 335.85087585 C-39.1285454 335.13983108 -39.13010716 334.4287863 -39.13171625 333.69619471 C-39.13570838 331.31135798 -39.13254745 328.92658525 -39.12939453 326.54174805 C-39.13072482 324.8212035 -39.13247771 323.10065924 -39.13461876 321.38011551 C-39.13913749 316.66711516 -39.13727755 311.9541361 -39.13419914 307.24113536 C-39.13233322 303.23190908 -39.1340296 299.22268755 -39.13576198 295.21346146 C-39.14087854 283.29504725 -39.1363543 271.37664888 -39.12897491 259.45823669 C-39.12550493 253.83519707 -39.12322348 248.21215778 -39.12139618 242.58911741 C-39.10243619 184.310122 -39.02156557 126.03120443 -38.66626704 67.75317651 C-38.63332172 62.30245676 -38.60508971 56.85172538 -38.57867432 51.40097046 C-38.54662405 44.84432538 -38.50713218 38.28777741 -38.45741057 31.73124152 C-38.43249017 28.43834621 -38.41141678 25.14551495 -38.3966217 21.85255623 C-38.38002474 18.33612889 -38.35121098 14.82002317 -38.31884766 11.30371094 C-38.3166881 10.27500728 -38.31452854 9.24630362 -38.31230354 8.18642712 C-38.30113943 7.25863603 -38.28997532 6.33084494 -38.2784729 5.37493896 C-38.27294214 4.57204311 -38.26741138 3.76914726 -38.26171303 2.94192123 C-38 1 -38 1 -36 -1 C-33.44780779 -1.26979888 -30.99640108 -1.42164294 -28.4375 -1.484375 C-27.69040771 -1.5084845 -26.94331543 -1.53259399 -26.17358398 -1.55743408 C-24.59340104 -1.60574725 -23.01306103 -1.64913544 -21.43261719 -1.68798828 C-19.00906794 -1.74976884 -16.58689001 -1.83281045 -14.1640625 -1.91796875 C-12.63024483 -1.96222119 -11.09639073 -2.00523184 -9.5625 -2.046875 C-8.83538818 -2.07279724 -8.10827637 -2.09871948 -7.35913086 -2.12542725 C-2.22979786 -2.22979786 -2.22979786 -2.22979786 0 0 Z " fill="#F8F8FB" transform="translate(499,299)"/>
<path d="M0 0 C0.66 0 1.32 0 2 0 C1.99476318 1.29623291 1.98952637 2.59246582 1.98413086 3.92797852 C1.96597237 8.75674748 1.95452842 13.58551345 1.94506836 18.41430664 C1.9400529 20.50057483 1.93323895 22.58683953 1.92456055 24.6730957 C1.91237264 27.67920801 1.90674369 30.68527366 1.90234375 33.69140625 C1.89718246 34.61772354 1.89202118 35.54404083 1.88670349 36.49842834 C1.88637034 40.38163681 1.94316474 44.14190984 2.53735352 47.98413086 C3.01070799 51.06980252 2.6183238 52.98567147 2 56 C2.33241964 58.00015207 2.66588145 60.00013103 3 62 C3.34194143 69.65345379 2.91875809 77.21975307 2.12109375 84.83203125 C2.00217776 87.94302693 2.35848829 90.79964572 2.79321289 93.87426758 C3.1538997 97.58205985 2.8034808 101.23438854 2.5 104.9375 C2.2872728 107.62827278 2.11924043 110.30218531 2 113 C2.33 113.33 2.66 113.66 3 114 C3.1613058 117.06481021 2.98150241 119.05549278 2 122 C1.90663564 123.62031208 1.86930353 125.24418914 1.8671875 126.8671875 C1.86533447 127.82947266 1.86348145 128.79175781 1.86157227 129.78320312 C1.86600342 130.80349609 1.87043457 131.82378906 1.875 132.875 C1.8762085 133.91333984 1.87741699 134.95167969 1.87866211 136.02148438 C1.91150254 142.49256458 2.14711363 148.84870249 2.87890625 155.28125 C3 158 3 158 2.52026367 160.94799805 C1.7468725 166.12807121 1.81800739 171.32329521 1.796875 176.55078125 C1.79117493 177.64593552 1.78547485 178.74108978 1.77960205 179.86943054 C1.77019158 182.17311649 1.76363387 184.47681566 1.75976562 186.78051758 C1.74998451 190.31810358 1.71889387 193.8551264 1.6875 197.39257812 C1.68097662 199.63280906 1.67572355 201.87304413 1.671875 204.11328125 C1.6595282 205.17468826 1.6471814 206.23609528 1.63446045 207.32966614 C1.6389621 208.79710518 1.6389621 208.79710518 1.64355469 210.29418945 C1.63990906 211.15687943 1.63626343 212.0195694 1.63250732 212.90840149 C1.75377991 213.598629 1.87505249 214.28885651 2 215 C2.99 215.66 3.98 216.32 5 217 C4.34 217.33 3.68 217.66 3 218 C1.2654498 226.37814624 1.84915396 235.42984491 1.875 243.9375 C1.87113281 245.23751953 1.86726563 246.53753906 1.86328125 247.87695312 C1.86521484 249.74577148 1.86521484 249.74577148 1.8671875 251.65234375 C1.86831543 252.77632568 1.86944336 253.90030762 1.87060547 255.05834961 C1.9814487 257.57825537 2.35441011 259.5873776 3 262 C2.89076947 264.2119183 2.71888463 266.42122973 2.5 268.625 C1.86770509 272.96453409 1.86770509 272.96453409 3 277 C2.75779783 278.55701392 2.51242552 280.11358076 2.25390625 281.66796875 C1.8104678 285.74078036 1.98476174 289.82308681 2.0625 293.9140625 C2.00499135 296.75355207 1.65556406 299.24458232 1 302 C1.99 302.33 2.98 302.66 4 303 C2.68 303 1.36 303 0 303 C0 203.01 0 103.02 0 0 Z " fill="#FDFDFD" transform="translate(499,299)"/>
<path d="M0 0 C0.66 0.33 1.32 0.66 2 1 C1.89499952 35.08125094 1.78513525 69.16248233 1.66888306 103.24369668 C1.65511594 107.28095392 1.64138848 111.31821129 1.62768555 115.35546875 C1.62495724 116.15910528 1.62222894 116.96274181 1.61941796 117.79073097 C1.5755221 130.74824418 1.53482754 143.70576553 1.49534739 156.66329287 C1.45466752 169.99079697 1.41047476 183.31828621 1.36312145 196.64576828 C1.33408549 204.84818468 1.30768537 213.05060038 1.28482103 221.25303634 C1.26880911 226.90236284 1.24933952 232.55167132 1.22733159 238.20097761 C1.21479185 241.44462493 1.2041208 244.68825773 1.19658089 247.93192101 C1.15659099 264.64211264 0.75986198 281.30660629 0 298 C1.32 298.33 2.64 298.66 4 299 C2.68 299.66 1.36 300.32 0 301 C-1.65 299.35 -3.3 297.7 -5 296 C-4.67 295.34 -4.34 294.68 -4 294 C-3.34 294.66 -2.68 295.32 -2 296 C-1.16106765 278.42224623 -0.83551845 260.88109291 -0.79467773 243.28491211 C-0.78506885 240.6113055 -0.77509685 237.93770247 -0.76467896 235.26409912 C-0.7431809 229.56562417 -0.72494276 223.8671468 -0.70907402 218.16865349 C-0.68612699 209.93011544 -0.65802224 201.69160096 -0.62875474 193.45308322 C-0.58137824 180.0788401 -0.53803539 166.70458719 -0.49731445 153.33032227 C-0.45780547 140.35700727 -0.41634376 127.38370087 -0.37231445 114.41040039 C-0.36959018 113.60749268 -0.36686591 112.80458496 -0.36405908 111.97734671 C-0.35037708 107.94842915 -0.33665731 103.91951173 -0.32291877 99.89059436 C-0.20942578 66.59374747 -0.10251485 33.29688253 0 0 Z " fill="#51C3FA" transform="translate(757,393)"/>
<path d="M0 0 C-0.33 0.33 -0.66 0.66 -1 1 C-12.55 1 -24.1 1 -36 1 C-36.33 49.18 -36.66 97.36 -37 147 C-39 145 -39 145 -39.23606491 142.5105896 C-39.22944462 141.45312531 -39.22282433 140.39566101 -39.21600342 139.30615234 C-39.21322891 138.09465515 -39.21045441 136.88315796 -39.20759583 135.63494873 C-39.19426284 134.28527631 -39.18072125 132.93560595 -39.16699219 131.5859375 C-39.15984282 130.17019034 -39.15355121 128.75443863 -39.14805603 127.33868408 C-39.13039479 123.48745006 -39.09994724 119.63641339 -39.06672192 115.78528595 C-39.03358516 111.76103038 -39.010271 107.73671593 -38.9854126 103.71240234 C-38.94201497 96.95338315 -38.89012949 90.19446721 -38.83349609 83.43554688 C-38.76808292 75.61372101 -38.71707003 67.79189902 -38.67355418 59.96992302 C-38.63586711 53.26241604 -38.59045978 46.55499392 -38.53855062 39.84758186 C-38.50752455 35.83791361 -38.47919516 31.82827468 -38.45778656 27.81854248 C-38.43722776 24.04939542 -38.40699882 20.28044888 -38.36920357 16.51143646 C-38.35690113 15.12550202 -38.34800533 13.73953268 -38.34270287 12.35355377 C-38.33493773 10.46692514 -38.31381543 8.58036534 -38.29193115 6.69384766 C-38.28380276 5.63638336 -38.27567436 4.57891907 -38.26729965 3.4894104 C-38 1 -38 1 -36 -1 C-33.44780779 -1.26979888 -30.99640108 -1.42164294 -28.4375 -1.484375 C-27.69040771 -1.5084845 -26.94331543 -1.53259399 -26.17358398 -1.55743408 C-24.59340104 -1.60574725 -23.01306103 -1.64913544 -21.43261719 -1.68798828 C-19.00906794 -1.74976884 -16.58689001 -1.83281045 -14.1640625 -1.91796875 C-12.63024483 -1.96222119 -11.09639073 -2.00523184 -9.5625 -2.046875 C-8.83538818 -2.07279724 -8.10827637 -2.09871948 -7.35913086 -2.12542725 C-2.22979786 -2.22979786 -2.22979786 -2.22979786 0 0 Z " fill="#FAF9FC" transform="translate(499,299)"/>
<path d="M0 0 C18.315 0.495 18.315 0.495 37 1 C37 1.33 37 1.66 37 2 C25.45 2 13.9 2 2 2 C2 28.07 2 54.14 2 81 C1.34 80.67 0.68 80.34 0 80 C0 53.6 0 27.2 0 0 Z " fill="#7AC9F7" transform="translate(1036,299)"/>
<path d="M0 0 C3.88767801 -0.23353543 6.18571732 0.34374285 9.625 2.125 C35.23339096 14.27521775 63.1589135 17.39532693 91.125 17.125 C92.97004713 17.11493197 94.81509968 17.105813 96.66015625 17.09765625 C101.10690923 17.07598716 105.55339141 17.04167694 110 17 C110 17.33 110 17.66 110 18 C76.41313849 22.12353547 44.08077125 17.81731466 12.375 6.3125 C11.58730225 6.02729492 10.79960449 5.74208984 9.98803711 5.44824219 C6.23818885 4.03445307 3.05755704 2.67738461 0 0 Z " fill="#F0F3F9" transform="translate(593,726)"/>
<path d="M0 0 C4.52974226 1.38408791 6.11415594 3.35025604 9 7 C10.22581716 7.92864937 11.47754184 8.82386374 12.75 9.6875 C14.35875 10.8321875 14.35875 10.8321875 16 12 C16 12.66 16 13.32 16 14 C17.98 14.66 19.96 15.32 22 16 C22 16.66 22 17.32 22 18 C22.78375 18.103125 23.5675 18.20625 24.375 18.3125 C27 19 27 19 29 22 C31.55183404 23.20450304 31.55183404 23.20450304 34 24 C34 24.66 34 25.32 34 26 C34.763125 26.12375 35.52625 26.2475 36.3125 26.375 C39 27 39 27 42 29 C42 29.66 42 30.32 42 31 C42.99 31.33 43.98 31.66 45 32 C44.01 32.495 44.01 32.495 43 33 C41.12744141 32.15478516 41.12744141 32.15478516 38.8515625 30.7890625 C38.01657227 30.29035645 37.18158203 29.79165039 36.32128906 29.27783203 C35.43151367 28.73239746 34.54173828 28.18696289 33.625 27.625 C32.71975586 27.07569824 31.81451172 26.52639648 30.88183594 25.96044922 C23.91913465 21.68307699 17.40693035 17.07549014 11 12 C9.42022825 10.807766 7.83729272 9.61970239 6.25 8.4375 C5.16666667 7.625 4.08333333 6.8125 3 6 C3.37253906 6.55429687 3.74507812 7.10859375 4.12890625 7.6796875 C4.60199219 8.40414062 5.07507813 9.12859375 5.5625 9.875 C6.03816406 10.59429688 6.51382813 11.31359375 7.00390625 12.0546875 C7.49697266 13.01761719 7.49697266 13.01761719 8 14 C7.67 14.66 7.34 15.32 7 16 C2.63035658 13.5030609 0.58209636 9.64684302 -1 5 C-0.75 2 -0.75 2 0 0 Z " fill="#F4F7FA" transform="translate(530,684)"/>
<path d="M0 0 C0.33 0 0.66 0 1 0 C1.02340511 12.06780266 1.04105606 24.13559971 1.05181217 36.20342064 C1.05698045 41.80993845 1.06396469 47.41644048 1.07543945 53.02294922 C1.17053406 100.68757031 1.17053406 100.68757031 0 122 C1.32 122.33 2.64 122.66 4 123 C2.02 123.99 2.02 123.99 0 125 C-1.65 123.35 -3.3 121.7 -5 120 C-4.505 119.01 -4.505 119.01 -4 118 C-3.34 118.66 -2.68 119.32 -2 120 C-0.74742721 96.43165189 -0.68024039 72.84024012 -0.46777344 49.24499512 C-0.41683329 43.67957907 -0.36153243 38.11420635 -0.30664062 32.54882812 C-0.20025193 21.69925606 -0.09856092 10.8496458 0 0 Z " fill="#50C2FA" transform="translate(757,569)"/>
<path d="M0 0 C5.37947845 -0.09921169 10.52676559 -0.00503775 15.86328125 0.78515625 C19.33756419 1.13449 22.80375397 0.96760433 26.2890625 0.83984375 C29.48661293 1.02874803 31.97425765 1.94852696 35 3 C37.92329705 3.71242094 40.86811894 4.31885777 43.8125 4.9375 C49.24277928 6.11196713 54.55345466 7.31899941 59.78515625 9.21484375 C63.80265993 10.63903818 67.90325146 11.80786185 71.984375 13.03515625 C74.71742802 13.90959161 77.3523431 14.89680962 80 16 C78.68 16.66 77.36 17.32 76 18 C75.505 17.01 75.505 17.01 75 16 C72.5808123 15.18364521 72.5808123 15.18364521 69.6484375 14.55859375 C68.55756836 14.30190918 67.46669922 14.04522461 66.34277344 13.78076172 C65.2396582 13.52311035 64.13654297 13.26545898 63 13 C61.11567593 12.51758494 59.23278369 12.02953295 57.3515625 11.53515625 C38.40442134 6.63732272 19.47609779 2.963108 0 1 C0 0.67 0 0.34 0 0 Z " fill="#E7ECF5" transform="translate(519,603)"/>
<path d="M0 0 C3.2864904 3.2006065 6.27490156 6.47007554 9.125 10.0625 C16.53704073 19.21347208 24.56543575 27.782946 33 36 C32.01 36 31.02 36 30 36 C29 35 28 34 27 33 C25.33927151 32.31867549 23.672233 31.65257873 22 31 C19.6875 29.625 19.6875 29.625 18 28 C18 26.68 18 25.36 18 24 C17.34 24 16.68 24 16 24 C15.46375 22.948125 14.9275 21.89625 14.375 20.8125 C12.75722832 17.94984727 11.62796014 16.68996678 9 14.5 C5.46249107 11.55207589 4.13253707 9.03658802 2 5 C1.34 4.34 0.68 3.68 0 3 C0 2.01 0 1.02 0 0 Z " fill="#F5F8FB" transform="translate(543,707)"/>
<path d="M0 0 C0 5.07170822 -3.74794744 8.32004579 -7 12 C-9.01029566 13.91491667 -11.06513876 15.7219349 -13.203125 17.4921875 C-16.67506397 20.1449079 -16.67506397 20.1449079 -18.3125 23.9375 C-19.43021685 27.29065054 -22.04153794 28.30945025 -25 30 C-25.66 30 -26.32 30 -27 30 C-27 31.32 -27 32.64 -27 34 C-32.2734375 37.22265625 -32.2734375 37.22265625 -34 38 C-34.66 37.67 -35.32 37.34 -36 37 C-35.12263184 36.12786865 -34.24526367 35.2557373 -33.34130859 34.35717773 C-30.06235051 31.09642756 -26.78679133 27.83228068 -23.51220703 24.56713867 C-22.09905843 23.15899437 -20.68501052 21.75175193 -19.27001953 20.34545898 C-17.22707299 18.31474997 -15.18746721 16.28073473 -13.1484375 14.24609375 C-12.52319183 13.62600937 -11.89794617 13.00592499 -11.25375366 12.36705017 C-7.28974493 8.40354031 -3.60058221 4.29708037 0 0 Z " fill="#F4F9FC" transform="translate(973,669)"/>
<path d="M0 0 C1.32 0 2.64 0 4 0 C4.02329471 7.38954658 4.04100164 14.77908509 4.05181217 22.16866112 C4.05700384 25.60089806 4.06403297 29.03310967 4.07543945 32.46533203 C4.0885054 36.42219731 4.09325891 40.37905275 4.09765625 44.3359375 C4.10281754 45.55300385 4.10797882 46.77007019 4.11329651 48.02401733 C4.11373415 54.7479236 3.84170372 61.32661548 3 68 C2.67 68 2.34 68 2 68 C1.505 36.32 1.505 36.32 1 4 C0.01 5.98 -0.98 7.96 -2 10 C-3.39195915 5.82412255 -1.82323219 3.86525224 0 0 Z " fill="#A9DDFA" transform="translate(1071,575)"/>
<path d="M0 0 C-1 1 -1 1 -4.32641602 1.11352539 C-5.80225556 1.11336629 -7.27810069 1.10767314 -8.75390625 1.09765625 C-9.52935287 1.0962413 -10.3047995 1.09482635 -11.10374451 1.09336853 C-13.59003494 1.08775345 -16.0762366 1.07519846 -18.5625 1.0625 C-20.24413933 1.05748694 -21.92578006 1.0529237 -23.60742188 1.04882812 C-27.73831566 1.03777913 -31.86914276 1.02050445 -36 1 C-36 4.63 -36 8.26 -36 12 C-38.71232939 7.93150591 -38.30699887 5.83523216 -38 1 C-35.14977861 -1.85022139 -32.26390732 -1.39056972 -28.4375 -1.484375 C-27.69040771 -1.5084845 -26.94331543 -1.53259399 -26.17358398 -1.55743408 C-24.59340104 -1.60574725 -23.01306103 -1.64913544 -21.43261719 -1.68798828 C-19.00906794 -1.74976884 -16.58689001 -1.83281045 -14.1640625 -1.91796875 C-12.63024483 -1.96222119 -11.09639073 -2.00523184 -9.5625 -2.046875 C-8.83538818 -2.07279724 -8.10827637 -2.09871948 -7.35913086 -2.12542725 C-2.22979786 -2.22979786 -2.22979786 -2.22979786 0 0 Z " fill="#91A1CC" transform="translate(499,299)"/>
<path d="M0 0 C-0.84987277 10.2655685 -0.84987277 10.2655685 -3 14 C-4.9375 15.125 -4.9375 15.125 -7 16 C-9.13612366 17.88964785 -10.38907149 19.58360724 -12 22 C-12.66 22 -13.32 22 -14 22 C-12.53351336 16.87526679 -10.25383734 12.69657871 -7.5 8.1875 C-7.09652344 7.50751953 -6.69304688 6.82753906 -6.27734375 6.12695312 C-2.57551564 0 -2.57551564 0 0 0 Z " fill="#31529F" transform="translate(965,513)"/>
<path d="M0 0 C0.84681133 5.08086796 1.09038099 9.84828377 1 15 C-1 12 -1 12 -1 3 C-12.55 3 -24.1 3 -36 3 C-35.67 2.34 -35.34 1.68 -35 1 C-34.16227051 1.00523682 -33.32454102 1.01047363 -32.46142578 1.01586914 C-29.35661064 1.03290014 -26.25181929 1.04544482 -23.14697266 1.05493164 C-21.14093449 1.06244036 -19.13491798 1.0751447 -17.12890625 1.08789062 C-15.87207031 1.09111328 -14.61523438 1.09433594 -13.3203125 1.09765625 C-12.15773926 1.10289307 -10.99516602 1.10812988 -9.79736328 1.11352539 C-6.30909959 0.97196119 -3.62248515 -0.09532856 0 0 Z " fill="#A3DAF9" transform="translate(1074,297)"/>
<path d="M0 0 C0.77403168 0.00141495 1.54806335 0.0028299 2.34555054 0.00428772 C4.82155192 0.00989222 7.29746338 0.02244542 9.7734375 0.03515625 C11.45051953 0.04017067 13.12760297 0.04473368 14.8046875 0.04882812 C18.91930556 0.0598631 23.03385628 0.07713071 27.1484375 0.09765625 C16.96342855 5.5312952 1.47219453 3.20630637 -9.8515625 3.09765625 C-9.8515625 2.43765625 -9.8515625 1.77765625 -9.8515625 1.09765625 C-6.73202122 -0.46211439 -3.42196866 -0.02338501 0 0 Z " fill="#516DB0" transform="translate(696.8515625,794.90234375)"/>
<path d="M0 0 C0 4.53850662 -2.5336296 7.3004444 -5 11 C-5.928125 11.4125 -6.85625 11.825 -7.8125 12.25 C-11.40679304 14.22333736 -12.58518029 16.01195192 -14.7734375 19.34375 C-16.49362012 21.66654437 -18.36818486 22.86191778 -21 24 C-21.66 23.67 -22.32 23.34 -23 23 C-15.41 15.41 -7.82 7.82 0 0 Z " fill="#FDFEFE" transform="translate(855,613)"/>
<path d="M0 0 C2.80203076 5.04365537 3.22354078 10.34293998 4 16 C-1.30479934 16 -2.18982627 14.4637943 -6 11 C-4.68 10.67 -3.36 10.34 -2 10 C-2 9.01 -2 8.02 -2 7 C-1.34 7 -0.68 7 0 7 C0 4.69 0 2.38 0 0 Z " fill="#4A93DC" transform="translate(1109,552)"/>
<path d="M0 0 C4.88308732 -0.32845879 7.86644632 0.56160892 12.1875 2.8125 C13.72470703 3.59560547 13.72470703 3.59560547 15.29296875 4.39453125 C17.63985668 5.78640851 19.19223794 7.00369834 21 9 C22.31963709 10.01800576 23.65009646 11.02248365 25 12 C21.00266793 11.40833713 18.11619759 10.13568973 14.625 8.125 C11.4413765 6.32910982 8.32422957 4.62741203 4.9375 3.25 C2 2 2 2 0 0 Z " fill="#93A3CE" transform="translate(661,682)"/>
<path d="M0 0 C-0.33 1.65 -0.66 3.3 -1 5 C-0.34 5.33 0.32 5.66 1 6 C-0.93719378 6.05406122 -2.87481921 6.09282025 -4.8125 6.125 C-5.89144531 6.14820313 -6.97039063 6.17140625 -8.08203125 6.1953125 C-11 6 -11 6 -14 4 C-13.34 4 -12.68 4 -12 4 C-11.67 3.34 -11.34 2.68 -11 2 C-10.01 2.33 -9.02 2.66 -8 3 C-8 2.34 -8 1.68 -8 1 C-5.07175348 0.02391783 -3.04386724 -0.08226668 0 0 Z " fill="#5E95D9" transform="translate(681,826)"/>
<path d="M0 0 C7.97390903 1.29645724 14.41767173 6.16596668 20.98046875 10.6484375 C22.62976662 11.75222292 24.33940904 12.76537659 26.0625 13.75 C26.701875 14.1625 27.34125 14.575 28 15 C28 15.66 28 16.32 28 17 C24.40423012 15.66076942 21.24722924 14.05212874 17.98828125 12.03125 C16.60479492 11.17466797 16.60479492 11.17466797 15.19335938 10.30078125 C14.24267578 9.70652344 13.29199219 9.11226562 12.3125 8.5 C11.35021484 7.90574219 10.38792969 7.31148437 9.39648438 6.69921875 C2.26549455 2.26549455 2.26549455 2.26549455 0 0 Z " fill="#EFF3F9" transform="translate(655,645)"/>
<path d="M0 0 C1.98 0.66 3.96 1.32 6 2 C6 2.66 6 3.32 6 4 C6.67417969 4.20367188 7.34835937 4.40734375 8.04296875 4.6171875 C12.05908373 6.49526505 15.01513318 9.19778043 18.3125 12.125 C18.95767578 12.68832031 19.60285156 13.25164063 20.26757812 13.83203125 C21.85026301 15.21541508 23.42585141 16.60691045 25 18 C21.60127554 18 21.17742965 17.62749239 18.671875 15.55078125 C18.03636719 15.03193359 17.40085937 14.51308594 16.74609375 13.97851562 C16.08738281 13.42873047 15.42867187 12.87894531 14.75 12.3125 C13.45462611 11.24427083 12.15775807 10.17785087 10.859375 9.11328125 C10.22451172 8.5920166 9.58964844 8.07075195 8.93554688 7.53369141 C7.00658126 6.00521487 5.03189309 4.57864574 3.015625 3.16796875 C2.02046875 2.45253906 1.0253125 1.73710938 0 1 C0 0.67 0 0.34 0 0 Z " fill="#F0F3F8" transform="translate(683,662)"/>
<path d="M0 0 C0.33 0 0.66 0 1 0 C1 8.91 1 17.82 1 27 C2.32 27.33 3.64 27.66 5 28 C3.02 28.99 3.02 28.99 1 30 C-0.65 28.35 -2.3 26.7 -4 25 C-3.67 24.34 -3.34 23.68 -3 23 C-2.34 23.66 -1.68 24.32 -1 25 C-0.67 16.75 -0.34 8.5 0 0 Z " fill="#79BFED" transform="translate(756,664)"/>
<path d="M0 0 C1.65 0.33 3.3 0.66 5 1 C5.33 1.99 5.66 2.98 6 4 C4.68 3.67 3.36 3.34 2 3 C-1.465 10.425 -1.465 10.425 -5 18 C-6 16 -6 16 -5.546875 14.08203125 C-3.86755347 9.29925769 -2.06820824 4.62884702 0 0 Z " fill="#6AA6E3" transform="translate(1064,531)"/>
<path d="M0 0 C0.66 0.33 1.32 0.66 2 1 C-2 5 -6 9 -10 13 C-11.32 12.34 -12.64 11.68 -14 11 C-12.41728767 9.72839334 -10.83380365 8.45774715 -9.25 7.1875 C-8.36828125 6.47980469 -7.4865625 5.77210938 -6.578125 5.04296875 C-4.41007071 3.32494998 -2.22271099 1.64626024 0 0 Z " fill="#73C8F7" transform="translate(834,314)"/>
<path d="M0 0 C6.18247841 2.98132848 11.22418754 6.12157825 15 12 C15 12.66 15 13.32 15 14 C13.02 14.99 13.02 14.99 11 16 C11 15.01 11 14.02 11 13 C8.98392727 8.33783181 5.71478727 6.11153941 1.64453125 3.33203125 C1.10183594 2.89246094 0.55914063 2.45289063 0 2 C0 1.34 0 0.68 0 0 Z " fill="#D6DEED" transform="translate(708,681)"/>
<path d="M0 0 C0.33 1.32 0.66 2.64 1 4 C-3.53846154 7.78205128 -3.53846154 7.78205128 -6.25 9.0625 C-8.35994637 9.93497944 -8.35994637 9.93497944 -9 13 C-10.98 13.33 -12.96 13.66 -15 14 C-10.2347969 9.0759568 -5.11342667 4.55740358 0 0 Z " fill="#F5F9FD" transform="translate(936,707)"/>
<path d="M0 0 C0.721875 0.309375 1.44375 0.61875 2.1875 0.9375 C6.43104594 2.54061735 9.60909233 3.46363589 14 2 C14 1.34 14 0.68 14 0 C15.98 0 17.96 0 20 0 C16.375 3 16.375 3 13 3 C13 3.99 13 4.98 13 6 C10 7 10 7 7.7734375 6.07421875 C6.58621094 5.38779297 6.58621094 5.38779297 5.375 4.6875 C4.57835937 4.23761719 3.78171875 3.78773438 2.9609375 3.32421875 C1 2 1 2 0 0 Z " fill="#D4DBED" transform="translate(693,698)"/>
<path d="M0 0 C5.37342856 -0.09910012 10.51859174 -0.0173808 15.84765625 0.7890625 C19.4553223 1.14262687 23.06355284 0.91342507 26.6796875 0.7421875 C27.44539062 0.82726562 28.21109375 0.91234375 29 1 C29.66 1.99 30.32 2.98 31 4 C20.6093545 3.3742559 10.3259779 2.28762194 0 1 C0 0.67 0 0.34 0 0 Z " fill="#F8F9FC" transform="translate(519,603)"/>
<path d="M0 0 C-0.11409593 1.45922693 -0.24165544 2.91740598 -0.375 4.375 C-0.44460938 5.18710937 -0.51421875 5.99921875 -0.5859375 6.8359375 C-1 9 -1 9 -3 11 C-3.99 10.01 -4.98 9.02 -6 8 C-3.73913043 0 -3.73913043 0 0 0 Z " fill="#35539E" transform="translate(965,513)"/>
<path d="M0 0 C5.22957751 0.51020268 8.65612051 2.27244776 13 5 C13.969375 5.5775 14.93875 6.155 15.9375 6.75 C16.618125 7.1625 17.29875 7.575 18 8 C15 9 15 9 11.42578125 7.34765625 C10.04907832 6.59612277 8.67814591 5.8339433 7.3125 5.0625 C6.2596582 4.48338867 6.2596582 4.48338867 5.18554688 3.89257812 C3.45204328 2.93738227 1.72534991 1.96984614 0 1 C0 0.67 0 0.34 0 0 Z " fill="#EEF3F8" transform="translate(575,717)"/>
<path d="M0 0 C1.46300982 0.93018526 2.92025579 1.86944027 4.375 2.8125 C5.18710937 3.33457031 5.99921875 3.85664062 6.8359375 4.39453125 C9 6 9 6 11 9 C10.01 8.67 9.02 8.34 8 8 C7.67 9.32 7.34 10.64 7 12 C5.82767315 10.3790787 4.6622923 8.75313167 3.5 7.125 C2.8503125 6.22007812 2.200625 5.31515625 1.53125 4.3828125 C0 2 0 2 0 0 Z " fill="#0D2A8B" transform="translate(532,689)"/>
<path d="M0 0 C2.99324263 1.0975223 3.84610901 1.67682892 5.25 4.625 C5.4975 5.40875 5.745 6.1925 6 7 C3.69 7.33 1.38 7.66 -1 8 C-1.33 7.34 -1.66 6.68 -2 6 C-1.34 6 -0.68 6 0 6 C-0.33 5.01 -0.66 4.02 -1 3 C-0.34 3 0.32 3 1 3 C0.67 2.01 0.34 1.02 0 0 Z " fill="#073592" transform="translate(714,688)"/>
<path d="M0 0 C0 2.96200864 -0.06343771 5.19031313 -1 8 C-3.1875 9 -3.1875 9 -6 10 C-8.11496974 11.55892136 -10.02787392 13.25719091 -12 15 C-10.62177144 11.87327251 -9.03754129 9.84197456 -6.5625 7.5 C-4.1192676 5.13311862 -1.92112855 2.82518905 0 0 Z " fill="#8CA0CB" transform="translate(893,613)"/>
<path d="M0 0 C2.66666667 1.33333333 5.33333333 2.66666667 8 4 C8 4.66 8 5.32 8 6 C8.639375 6.28875 9.27875 6.5775 9.9375 6.875 C12 8 12 8 13 10 C8.0845485 8.68122033 3.63558224 6.62482608 0 3 C0 2.01 0 1.02 0 0 Z " fill="#86B4E5" transform="translate(687,324)"/>
<path d="M0 0 C1 3 1 3 -0.125 5.375 C-3.16422551 9.62991572 -6.73174743 12.99641485 -11 16 C-9.32076975 12.19866558 -6.88537166 9.02917298 -4.375 5.75 C-3.95476563 5.19570313 -3.53453125 4.64140625 -3.1015625 4.0703125 C-2.07061281 2.71133337 -1.03570089 1.35536165 0 0 Z " fill="#F2F9FD" transform="translate(891,569)"/>
<path d="M0 0 C0 1.32 0 2.64 0 4 C3.63 4 7.26 4 11 4 C11 4.33 11 4.66 11 5 C0.44191344 6.33257403 0.44191344 6.33257403 -4 5 C-4 3.68 -4 2.36 -4 1 C-2 0 -2 0 0 0 Z " fill="#458DDA" transform="translate(684,826)"/>
<path d="M0 0 C0.33 0 0.66 0 1 0 C1.33895656 1.72807318 1.67091525 3.45751974 2 5.1875 C2.185625 6.15042969 2.37125 7.11335938 2.5625 8.10546875 C2.96877612 10.7934206 3.07933572 13.28771019 3 16 C2.67 15.01 2.34 14.02 2 13 C1.34 13 0.68 13 0 13 C-0.83796731 8.34462607 -1.0161692 4.62921525 0 0 Z " fill="#96C0EB" transform="translate(1096,480)"/>
<path d="M0 0 C6.04801071 0.54981916 11.30601106 1.90429574 17 4 C13.28125 6.046875 13.28125 6.046875 10.75 5.625 C10.1725 5.41875 9.595 5.2125 9 5 C9 4.34 9 3.68 9 3 C4.545 2.01 4.545 2.01 0 1 C0 0.67 0 0.34 0 0 Z " fill="#B4D1EF" transform="translate(571,266)"/>
<path d="M0 0 C1.32 0.33 2.64 0.66 4 1 C2.37829621 2.00533667 0.75252763 3.00411907 -0.875 4 C-2.23238281 4.8353125 -2.23238281 4.8353125 -3.6171875 5.6875 C-6 7 -6 7 -8 7 C-8 6.34 -8 5.68 -8 5 C-5.09451118 2.95830515 -3.59857954 2 0 2 C0 1.34 0 0.68 0 0 Z " fill="#8BD1F8" transform="translate(772,682)"/>
<path d="M0 0 C0 3.63327194 -0.95586411 5.04735927 -3 8 C-3.99 8.66 -4.98 9.32 -6 10 C-6.66 9.34 -7.32 8.68 -8 8 C-5.36 5.36 -2.72 2.72 0 0 Z " fill="#5570B2" transform="translate(862,647)"/>
<path d="M0 0 C4.41889613 1.35021826 6.34345343 3.26115668 9 7 C8.67 7.66 8.34 8.32 8 9 C3.96189555 7.65396518 2.52704924 5.34663277 0 2 C0 1.34 0 0.68 0 0 Z " fill="#629FDF" transform="translate(737,371)"/>
<path d="M0 0 C0.66 0 1.32 0 2 0 C2.433125 1.0725 2.86625 2.145 3.3125 3.25 C4.55321513 6.16272646 5.95070379 8.56036166 8 11 C7.67 11.66 7.34 12.32 7 13 C2.79922338 10.53747578 1.60537778 7.49505778 0 3 C0 2.01 0 1.02 0 0 Z " fill="#E0E7F1" transform="translate(530,687)"/>
<path d="M0 0 C0.66 0 1.32 0 2 0 C1.50269348 4.97306516 0.44697666 8.63799813 -2 13 C-2.66 12.67 -3.32 12.34 -4 12 C-2.66666667 8 -1.33333333 4 0 0 Z " fill="#84A4D5" transform="translate(969,498)"/>
<path d="M0 0 C-1 2 -1 2 -3.1796875 2.88671875 C-4.06914063 3.15097656 -4.95859375 3.41523437 -5.875 3.6875 C-6.75929688 3.95949219 -7.64359375 4.23148438 -8.5546875 4.51171875 C-11 5 -11 5 -14 4 C-13.34 4 -12.68 4 -12 4 C-11.67 3.34 -11.34 2.68 -11 2 C-10.01 2.33 -9.02 2.66 -8 3 C-8 2.34 -8 1.68 -8 1 C-5.07175348 0.02391783 -3.04386724 -0.08226668 0 0 Z " fill="#F0F6FC" transform="translate(681,826)"/>
<path d="M0 0 C3.23861303 1.44424635 5.61969163 3.25772247 8.25 5.625 C8.95640625 6.25664063 9.6628125 6.88828125 10.390625 7.5390625 C10.92171875 8.02117188 11.4528125 8.50328125 12 9 C11.01 9.33 10.02 9.66 9 10 C7.49702124 8.52386015 5.99768715 7.04400843 4.5 5.5625 C3.6646875 4.73878906 2.829375 3.91507813 1.96875 3.06640625 C0 1 0 1 0 0 Z " fill="#E5EBF4" transform="translate(576,744)"/>
<path d="M0 0 C0.66 0 1.32 0 2 0 C1.65120368 3.25543229 0.97866739 4.01873107 -1.5625 6.25 C-2.366875 6.8275 -3.17125 7.405 -4 8 C-4.66 7.34 -5.32 6.68 -6 6 C-4.71034824 4.62437146 -3.37310707 3.29233607 -2 2 C-1.34 2 -0.68 2 0 2 C0 1.34 0 0.68 0 0 Z " fill="#65C1F5" transform="translate(800,342)"/>
<path d="M0 0 C-0.804375 0.45375 -1.60875 0.9075 -2.4375 1.375 C-5.08856572 2.74725665 -5.08856572 2.74725665 -6 5 C-6.99 4.67 -7.98 4.34 -9 4 C-8.67 3.34 -8.34 2.68 -8 2 C-8.66 1.67 -9.32 1.34 -10 1 C-3.71428571 -1.42857143 -3.71428571 -1.42857143 0 0 Z " fill="#418BD8" transform="translate(694,824)"/>
<path d="M0 0 C-2.97 1.65 -5.94 3.3 -9 5 C-9.99 4.01 -10.98 3.02 -12 2 C-10.37787941 1.47026689 -8.75218416 0.95146893 -7.125 0.4375 C-6.22007812 0.14746094 -5.31515625 -0.14257812 -4.3828125 -0.44140625 C-2 -1 -2 -1 0 0 Z " fill="#DAE6F5" transform="translate(759,789)"/>
<path d="M0 0 C1.46291304 0.5929915 2.92021513 1.19983823 4.375 1.8125 C5.18710937 2.14894531 5.99921875 2.48539063 6.8359375 2.83203125 C9 4 9 4 11 7 C10.236875 6.67 9.47375 6.34 8.6875 6 C6.00930865 4.82563314 6.00930865 4.82563314 3 5 C2.34 5 1.68 5 1 5 C0.67 3.35 0.34 1.7 0 0 Z " fill="#093693" transform="translate(539,696)"/>
<path d="M0 0 C1.44010481 0.25662245 2.8770687 0.53090821 4.3125 0.8125 C5.11300781 0.96332031 5.91351562 1.11414063 6.73828125 1.26953125 C9.23445587 2.07572236 10.32422106 3.02052002 12 5 C11.01 5.495 11.01 5.495 10 6 C7.6171875 5.00390625 7.6171875 5.00390625 4.875 3.5625 C3.96492187 3.08941406 3.05484375 2.61632812 2.1171875 2.12890625 C1.41851563 1.75636719 0.71984375 1.38382813 0 1 C0 0.67 0 0.34 0 0 Z " fill="#7CAEE3" transform="translate(638,608)"/>
<path d="M0 0 C0.33 0.66 0.66 1.32 1 2 C-2.625 7.875 -2.625 7.875 -6 9 C-4.68775452 5.06326356 -3.08089673 2.77280706 0 0 Z " fill="#6277B3" transform="translate(948,540)"/>
<path d="M0 0 C-1.29299694 2.88437779 -2.65941363 4.87219421 -5 7 C-5.99 6.67 -6.98 6.34 -8 6 C-3.375 0 -3.375 0 0 0 Z " fill="#60C1F7" transform="translate(780,366)"/>
<path d="M0 0 C0.33 0 0.66 0 1 0 C2.19088986 5.38027025 3.2919519 10.45291384 3 16 C2.67 16 2.34 16 2 16 C1.67 13.36 1.34 10.72 1 8 C0.34 8 -0.32 8 -1 8 C-0.67 5.36 -0.34 2.72 0 0 Z " fill="#C9DFF4" transform="translate(1092,458)"/>
<path d="M0 0 C0 0.66 0 1.32 0 2 C1.32 2.33 2.64 2.66 4 3 C-0.29 2.67 -4.58 2.34 -9 2 C-5.5647952 -0.29013653 -4.014669 -0.17842973 0 0 Z " fill="#9AAAD1" transform="translate(566,651)"/>
<path d="M0 0 C0.66 0.33 1.32 0.66 2 1 C0.68 2.65 -0.64 4.3 -2 6 C-3.32 5.67 -4.64 5.34 -6 5 C-4.02 3.35 -2.04 1.7 0 0 Z " fill="#5972B3" transform="translate(810,692)"/>
<path d="M0 0 C0 3 0 3 -1.53125 4.60546875 C-2.1809375 5.12753906 -2.830625 5.64960937 -3.5 6.1875 C-4.1496875 6.71730469 -4.799375 7.24710938 -5.46875 7.79296875 C-5.9740625 8.19128906 -6.479375 8.58960938 -7 9 C-7.66 8.67 -8.32 8.34 -9 8 C-6.03 5.36 -3.06 2.72 0 0 Z " fill="#042A8A" transform="translate(838,671)"/>
<path d="M0 0 C0.33 0.66 0.66 1.32 1 2 C-0.98 4.31 -2.96 6.62 -5 9 C-5.66 8.67 -6.32 8.34 -7 8 C-4.69 5.36 -2.38 2.72 0 0 Z " fill="#052988" transform="translate(877,633)"/>
<path d="M0 0 C0.66 0.99 1.32 1.98 2 3 C0.7260411 5.03833424 -0.61061923 7.03852126 -2 9 C-2.66 9 -3.32 9 -4 9 C-2.94124926 5.59687262 -1.99097846 2.98646769 0 0 Z " fill="#687CB6" transform="translate(955,526)"/>
<path d="M0 0 C2 1.375 2 1.375 4 3 C4 3.66 4 4.32 4 5 C5.32 5.66 6.64 6.32 8 7 C7.01 7.33 6.02 7.66 5 8 C2.5 5.6875 2.5 5.6875 0 3 C0 2.01 0 1.02 0 0 Z " fill="#5B9BDE" transform="translate(722,354)"/>
<path d="M0 0 C0.66 0.33 1.32 0.66 2 1 C2.40729228 3.32156597 2.74438677 5.6568787 3 8 C1.68 8 0.36 8 -1 8 C-1.33 7.34 -1.66 6.68 -2 6 C-1.34 6 -0.68 6 0 6 C0 4.02 0 2.04 0 0 Z " fill="#CFE4F5" transform="translate(1110,560)"/>
<path d="M0 0 C1.32 0 2.64 0 4 0 C4 0.66 4 1.32 4 2 C0.535 3.485 0.535 3.485 -3 5 C-3 4.01 -3 3.02 -3 2 C-2.01 2 -1.02 2 0 2 C0 1.34 0 0.68 0 0 Z " fill="#5495DB" transform="translate(735,801)"/>
<path d="M0 0 C0.86625 0.3403125 0.86625 0.3403125 1.75 0.6875 C0 2.25 0 2.25 -2.25 3.6875 C-4.5 3.375 -4.5 3.375 -6.25 2.6875 C-2.80384615 -0.38942308 -2.80384615 -0.38942308 0 0 Z " fill="#3F8CDA" transform="translate(1036.25,412.3125)"/>
<path d="M0 0 C0.66 0 1.32 0 2 0 C1.67 0.66 1.34 1.32 1 2 C0.67 1.34 0.34 0.68 0 0 Z " fill="#FBFEFF" transform="translate(784,678)"/>
<path d="" fill="#FCFDFE" transform="translate(0,0)"/>
<path d="" fill="#FBFDFF" transform="translate(0,0)"/>
<path d="" fill="#FAFDFF" transform="translate(0,0)"/>
<path d="M0 0 C2 1 2 1 2 1 Z " fill="#F9FDFF" transform="translate(722,690)"/>
<path d="" fill="#FCFDFE" transform="translate(0,0)"/>
<path d="" fill="#FCFEFE" transform="translate(0,0)"/>
<path d="" fill="#FDFEFF" transform="translate(0,0)"/>
<path d="M0 0 C2 1 2 1 2 1 Z " fill="#FCFDFE" transform="translate(1015,282)"/>
<path d="" fill="#FCFDFF" transform="translate(0,0)"/>
<path d="" fill="#FBFEFF" transform="translate(0,0)"/>
<path d="" fill="#FCFEFF" transform="translate(0,0)"/>
<path d="" fill="#F9FEFF" transform="translate(0,0)"/>
<path d="" fill="#FCFDFF" transform="translate(0,0)"/>
<path d="" fill="#FBFDFE" transform="translate(0,0)"/>
<path d="" fill="#FCFFFF" transform="translate(0,0)"/>
<path d="" fill="#FDFDFF" transform="translate(0,0)"/>
<path d="" fill="#FCFEFF" transform="translate(0,0)"/>
<path d="" fill="#FCFCFF" transform="translate(0,0)"/>
<path d="" fill="#FBFAFF" transform="translate(0,0)"/>
<path d="" fill="#F8FCFF" transform="translate(0,0)"/>
<path d="" fill="#FCFEFF" transform="translate(0,0)"/>
<path d="" fill="#FBFFFF" transform="translate(0,0)"/>
<path d="" fill="#FCFFFF" transform="translate(0,0)"/>
<path d="" fill="#FCFFFF" transform="translate(0,0)"/>
<path d="" fill="#FCFDFF" transform="translate(0,0)"/>
<path d="" fill="#FDFDFF" transform="translate(0,0)"/>
<path d="" fill="#FCFDFF" transform="translate(0,0)"/>
<path d="" fill="#FAFEFF" transform="translate(0,0)"/>
<path d="" fill="#FBFCFE" transform="translate(0,0)"/>
<path d="" fill="#FCFDFF" transform="translate(0,0)"/>
<path d="" fill="#FBFDFF" transform="translate(0,0)"/>
<path d="" fill="#FDFCFE" transform="translate(0,0)"/>
<path d="" fill="#FCFEFF" transform="translate(0,0)"/>
<path d="" fill="#FCFDFF" transform="translate(0,0)"/>
<path d="" fill="#FCFFFF" transform="translate(0,0)"/>
<path d="" fill="#FCFEFF" transform="translate(0,0)"/>
<path d="" fill="#FBFEFF" transform="translate(0,0)"/>
<path d="" fill="#FDFEFE" transform="translate(0,0)"/>
<path d="" fill="#F9FEFF" transform="translate(0,0)"/>
<path d="" fill="#FDFEFD" transform="translate(0,0)"/>
<path d="" fill="#FBFEFF" transform="translate(0,0)"/>
<path d="" fill="#FBFEFF" transform="translate(0,0)"/>
<path d="" fill="#FCFEFF" transform="translate(0,0)"/>
<path d="" fill="#FCFEFF" transform="translate(0,0)"/>
</svg>
